<svg width="96" height="96" viewBox="0 0 96 96" fill="none" xmlns="http://www.w3.org/2000/svg">
<g clip-path="url(#clip0_0_17)">
<path d="M51.3307 54.6544L83.8087 22.176C85.6438 20.3409 85.644 17.3548 83.8087 15.5194L75.7732 7.48367C74.8841 6.59454 73.7021 6.10498 72.4449 6.10498C71.1877 6.10498 70.0056 6.59454 69.1166 7.48367L48.0024 28.5979L26.8832 7.48292C25.0479 5.64804 22.0618 5.64804 20.2269 7.4831L12.1912 15.5188C11.3021 16.4079 10.8124 17.5899 10.8126 18.8473C10.8126 20.1047 11.3023 21.2867 12.1914 22.1756L44.6743 54.6544C46.5094 56.4892 49.4955 56.4892 51.3307 54.6544ZM46.6629 52.6655L14.1799 20.1872C13.8221 19.8294 13.6251 19.3535 13.6251 18.8475C13.6251 18.3414 13.8221 17.8657 14.1799 17.5078L22.2156 9.47191C22.9541 8.73335 24.156 8.73335 24.8947 9.47191L47.0081 31.5808C47.0091 31.5817 47.0102 31.5827 47.0113 31.5836C47.0124 31.5847 47.0134 31.586 47.0145 31.5872C48.3926 32.9477 49.8109 34.3629 51.2297 35.7934C51.7766 36.3448 52.6671 36.3484 53.2183 35.8014C53.7697 35.2545 53.7733 34.364 53.2264 33.8128C52.1434 32.721 51.0609 31.6384 49.9959 30.5816L71.1052 9.47229C71.4632 9.11435 71.9389 8.91748 72.4449 8.91748C72.951 8.91748 73.4267 9.11454 73.7846 9.47229L81.8203 17.508C82.1897 17.8774 82.3744 18.3624 82.3744 18.8477C82.3744 19.3327 82.1897 19.818 81.8203 20.1874L60.7119 41.2957C59.628 40.203 58.5769 39.1554 57.4132 38.0085C56.8601 37.4632 55.9699 37.4696 55.4246 38.0227C55.1544 38.2967 55.0198 38.6533 55.0198 39.0099C55.0198 39.3733 55.1597 39.7363 55.4389 40.0114C56.5974 41.1536 57.6439 42.1963 58.7231 43.2845L49.3421 52.6655C48.6036 53.4041 47.4017 53.4041 46.6629 52.6655Z" fill="white"/>
<path d="M4.39068 92.6268C4.39068 91.85 3.76106 91.2206 2.98443 91.2206L1.40625 91.2206C0.629622 91.2206 -3.36537e-06 91.85 -3.39933e-06 92.6268C-3.43328e-06 93.4036 0.629621 94.0331 1.40625 94.0331L2.98443 94.0331C3.76106 94.0331 4.39068 93.4036 4.39068 92.6268Z" fill="white"/>
<path d="M4.39069 84.3259C4.39069 83.5491 3.76106 82.9196 2.98444 82.9196L1.40625 82.9196C0.629629 82.9196 4.26402e-06 83.5491 4.23007e-06 84.3259C4.19611e-06 85.1027 0.629629 85.7321 1.40625 85.7321L2.98444 85.7321C3.76106 85.7321 4.39069 85.1027 4.39069 84.3259Z" fill="white"/>
<path d="M4.39069 76.0249C4.39069 75.2481 3.76106 74.6187 2.98444 74.6187L1.40625 74.6187C0.629629 74.6187 4.26402e-06 75.2481 4.23007e-06 76.0249C4.19611e-06 76.8017 0.629629 77.4312 1.40625 77.4312L2.98444 77.4312C3.76106 77.4312 4.39069 76.8015 4.39069 76.0249Z" fill="white"/>
<path d="M96 19.9751C96 19.1985 95.3704 18.5688 94.5937 18.5688L93.0156 18.5688C92.2389 18.5688 91.6093 19.1985 91.6093 19.9751C91.6093 20.7517 92.2389 21.3813 93.0156 21.3813L94.5937 21.3813C95.3704 21.3813 96 20.7517 96 19.9751Z" fill="white"/>
<path d="M96 11.6741C96 10.8975 95.3704 10.2679 94.5937 10.2679L93.0156 10.2679C92.2389 10.2679 91.6093 10.8975 91.6093 11.6741C91.6093 12.4508 92.2389 13.0804 93.0156 13.0804L94.5937 13.0804C95.3704 13.0804 96 12.4508 96 11.6741Z" fill="white"/>
<path d="M96 3.37311C96 2.59648 95.3704 1.96686 94.5937 1.96686L93.0156 1.96686C92.2389 1.96686 91.6093 2.59648 91.6093 3.37311C91.6093 4.14973 92.2389 4.77936 93.0156 4.77936L94.5937 4.77936C95.3704 4.77936 96 4.14973 96 3.37311Z" fill="white"/>
<path d="M51.3307 88.5118L83.8087 56.0332C85.6438 54.1982 85.644 51.212 83.8087 49.3766L75.7732 41.3409C74.8841 40.4518 73.7021 39.9622 72.4449 39.9622C71.1877 39.9622 70.0056 40.4518 69.1166 41.3409L48.0024 62.4551L26.8832 41.3403C25.0479 39.5055 22.0618 39.5055 20.2269 41.3405L12.1912 49.3762C11.3021 50.2653 10.8124 51.4473 10.8126 52.7047C10.8126 53.9621 11.3023 55.1441 12.1914 56.033L44.6743 88.5114C46.5094 90.3467 49.4955 90.3467 51.3307 88.5118ZM46.6629 86.5228L14.1799 54.0444C13.8221 53.6867 13.6251 53.2108 13.6251 52.7047C13.6251 52.1987 13.8221 51.723 14.1799 51.365L22.2156 43.3292C22.9541 42.5906 24.156 42.5906 24.8947 43.3292L47.0081 65.4382C47.0091 65.4392 47.0102 65.4401 47.0113 65.441C47.0124 65.4422 47.0134 65.4435 47.0145 65.4446C48.3926 66.8051 49.8109 68.2203 51.2297 69.6508C51.7766 70.2022 52.6671 70.2058 53.2183 69.6588C53.7697 69.1119 53.7733 68.2215 53.2264 67.6702C52.1434 66.5784 51.0609 65.4958 49.9959 64.439L71.1052 43.3295C71.4632 42.9716 71.9389 42.7747 72.4449 42.7747C72.951 42.7747 73.4267 42.9718 73.7846 43.3295L81.8203 51.3652C82.1897 51.7346 82.3744 52.2197 82.3744 52.7049C82.3744 53.19 82.1897 53.6752 81.8203 54.0446L60.7119 75.153C59.628 74.0602 58.5769 73.0127 57.4132 71.8657C56.8601 71.3205 55.9699 71.3268 55.4246 71.88C55.1544 72.1539 55.0198 72.5105 55.0198 72.8672C55.0198 73.2305 55.1597 73.5935 55.4389 73.8686C56.5974 75.0108 57.6439 76.0535 58.7231 77.1418L49.3421 86.5228C48.6036 87.2613 47.4017 87.2613 46.6629 86.5228Z" fill="white"/>
</g>
<defs>
<clipPath id="clip0_0_17">
<rect width="96" height="96" fill="white" transform="translate(96) rotate(90)"/>
</clipPath>
</defs>
</svg>
