<svg width="86" height="86" viewBox="0 0 86 86" fill="none" xmlns="http://www.w3.org/2000/svg">
<circle cx="43" cy="43" r="32.5" stroke="white"/>
<g clip-path="url(#clip0_33_33)">
<path d="M61 32.7441V27.3242C61 25.5311 59.5412 24.0723 57.748 24.0723H27.252C25.4588 24.0723 24 25.5311 24 27.3242V32.7441H61ZM49.0039 28.4082H55.5078C56.1065 28.4082 56.5918 28.8935 56.5918 29.4922C56.5918 30.0908 56.1065 30.5762 55.5078 30.5762H49.0039C48.4053 30.5762 47.9199 30.0908 47.9199 29.4922C47.9199 28.8935 48.4053 28.4082 49.0039 28.4082ZM38.1641 28.4082C38.7627 28.4082 39.248 28.8935 39.248 29.4922C39.248 30.0908 38.7627 30.5762 38.1641 30.5762C37.5654 30.5762 37.0801 30.0908 37.0801 29.4922C37.0801 28.8935 37.5654 28.4082 38.1641 28.4082ZM33.8281 28.4082C34.4268 28.4082 34.9121 28.8935 34.9121 29.4922C34.9121 30.0908 34.4268 30.5762 33.8281 30.5762C33.2295 30.5762 32.7441 30.0908 32.7441 29.4922C32.7441 28.8935 33.2295 28.4082 33.8281 28.4082ZM29.4922 28.4082C30.0908 28.4082 30.5762 28.8935 30.5762 29.4922C30.5762 30.0908 30.0908 30.5762 29.4922 30.5762C28.8935 30.5762 28.4082 30.0908 28.4082 29.4922C28.4082 28.8935 28.8935 28.4082 29.4922 28.4082Z" fill="white"/>
<path d="M24 35.2108V57.9745C24 59.7676 25.4588 61.2264 27.252 61.2264H57.748C59.5412 61.2264 61 59.7676 61 57.9745V35.2108H24ZM36.6732 50.6241C37.1408 50.9981 37.2165 51.6802 36.8425 52.1477C36.4686 52.6151 35.7864 52.691 35.319 52.317L29.899 47.981C29.3571 47.5476 29.3568 46.7219 29.899 46.2881L35.319 41.9522C35.7862 41.5782 36.4685 41.6539 36.8425 42.1214C37.2165 42.5889 37.1408 43.2711 36.6732 43.645L32.3114 47.1346L36.6732 50.6241ZM46.7483 39.9738L40.2444 55.1496C40.0086 55.6997 39.3715 55.9548 38.821 55.7189C38.2708 55.4831 38.0158 54.8457 38.2517 54.2955L44.7556 39.1197C44.9915 38.5695 45.6287 38.3146 46.179 38.5504C46.7292 38.7862 46.9842 39.4235 46.7483 39.9738ZM55.101 47.9811L49.681 52.317C49.2143 52.6905 48.532 52.6159 48.1575 52.1478C47.7835 51.6803 47.8592 50.9981 48.3268 50.6242L52.6886 47.1346L48.3268 43.6452C47.8592 43.2712 47.7835 42.5891 48.1575 42.1216C48.5314 41.6541 49.2135 41.5783 49.681 41.9523L55.101 46.2883C55.6429 46.7216 55.6432 47.5474 55.101 47.9811Z" fill="white"/>
</g>
<defs>
<clipPath id="clip0_33_33">
<rect width="37" height="37" fill="white" transform="translate(24 24)"/>
</clipPath>
</defs>
</svg>
