<svg width="30" height="30" viewBox="0 0 30 30" fill="none" xmlns="http://www.w3.org/2000/svg">
<path d="M0.9375 27.1875H29.0625V29.0625H0.9375V27.1875Z" fill="white"/>
<path d="M5.15625 11.25C4.78329 11.25 4.4256 11.3982 4.16188 11.6619C3.89816 11.9256 3.75 12.2833 3.75 12.6562V25.3125H9.375V12.6562C9.375 12.2833 9.22684 11.9256 8.96312 11.6619C8.6994 11.3982 8.34171 11.25 7.96875 11.25H5.15625Z" fill="white"/>
<path d="M13.5938 18.75C13.2208 18.75 12.8631 18.8982 12.5994 19.1619C12.3357 19.4256 12.1875 19.7833 12.1875 20.1562V25.3125H17.8125V20.1562C17.8125 19.7833 17.6643 19.4256 17.4006 19.1619C17.1369 18.8982 16.7792 18.75 16.4062 18.75H13.5938Z" fill="white"/>
<path d="M22.0312 21.5625C21.6583 21.5625 21.3006 21.7107 21.0369 21.9744C20.7732 22.2381 20.625 22.5958 20.625 22.9688V25.3125H26.25V22.9688C26.25 22.5958 26.1018 22.2381 25.8381 21.9744C25.5744 21.7107 25.2167 21.5625 24.8438 21.5625H22.0312Z" fill="white"/>
<path d="M12.4688 13.2C12.7804 14.237 13.347 15.1793 14.1167 15.9409C14.8864 16.7024 15.8348 17.2589 16.875 17.5594C17.4857 17.7281 18.1165 17.8132 18.75 17.8125C20.4905 17.8125 22.1597 17.1211 23.3904 15.8904C24.6211 14.6597 25.3125 12.9905 25.3125 11.25C25.3125 11.0014 25.2138 10.7629 25.038 10.5871C24.8621 10.4113 24.6237 10.3125 24.375 10.3125H21.0938C20.7208 10.3125 20.3631 10.1644 20.0994 9.90063C19.8357 9.63691 19.6875 9.27922 19.6875 8.90626V5.62501C19.6875 5.37637 19.5888 5.13792 19.413 4.9621C19.2371 4.78629 18.9987 4.68751 18.75 4.68751C17.7712 4.68558 16.8044 4.90263 15.9203 5.32277C15.0362 5.74291 14.2573 6.35549 13.6407 7.11564C12.9652 7.958 12.5054 8.95243 12.3012 10.0127C12.097 11.0729 12.1545 12.167 12.4688 13.2Z" fill="white"/>
<path d="M22.5 8.4375H28.125C28.3736 8.4375 28.6121 8.33873 28.7879 8.16291C28.9637 7.9871 29.0625 7.74864 29.0625 7.5C29.0625 5.75952 28.3711 4.09032 27.1404 2.85961C25.9097 1.6289 24.2405 0.9375 22.5 0.9375C22.2514 0.9375 22.0129 1.03627 21.8371 1.21209C21.6613 1.3879 21.5625 1.62636 21.5625 1.875V7.04063C21.5625 8.01563 21.9844 8.4375 22.5 8.4375Z" fill="white"/>
<path d="M0.9375 0.9375H14.0625V2.8125H0.9375V0.9375Z" fill="white"/>
<path d="M0.9375 4.6875H9.375V6.5625H0.9375V4.6875Z" fill="white"/>
</svg>
