<svg width="86" height="86" viewBox="0 0 86 86" fill="none" xmlns="http://www.w3.org/2000/svg">
<circle cx="43" cy="43" r="32.5" stroke="white"/>
<path d="M43.0971 43.1793H34.3967C33.4766 43.1793 32.7286 43.9281 32.7286 44.8473V51.1871H44.7651V44.8473C44.7651 43.9281 44.0164 43.1793 43.0971 43.1793ZM35.5434 47.984C34.8803 47.984 34.3422 47.4459 34.3422 46.7828C34.3422 46.1198 34.8803 45.5817 35.5434 45.5817C36.2072 45.5817 36.7445 46.1198 36.7445 46.7828C36.7445 47.4459 36.2072 47.984 35.5434 47.984ZM41.9496 47.984C41.2866 47.984 40.7484 47.4459 40.7484 46.7828C40.7484 46.1198 41.2866 45.5817 41.9496 45.5817C42.6135 45.5817 43.1508 46.1198 43.1508 46.7828C43.1508 47.4459 42.6135 47.984 41.9496 47.984Z" fill="white"/>
<path d="M49.0229 34.1981H28.4709C25.4544 34.1981 23 36.6525 23 39.669V53.7242C23 56.7407 25.4544 59.1951 28.4709 59.1951H29.4182L33.7473 63.637C34.2163 64.1195 34.9961 64.1216 35.4673 63.637L39.7947 59.1951H49.0229C52.0394 59.1951 54.4938 56.7407 54.4938 53.7242V39.669C54.4938 36.6525 52.0394 34.1981 49.0229 34.1981ZM48.0876 47.9843H47.1675V52.3885C47.1675 53.0516 46.6294 53.5897 45.9663 53.5897H31.5275C30.8636 53.5897 30.3263 53.0516 30.3263 52.3885V47.9843H29.4062C28.7432 47.9843 28.2051 47.4461 28.2051 46.7831C28.2051 46.1201 28.7432 45.5819 29.4062 45.5819H30.3263V44.8476C30.3263 42.6031 32.1521 40.7773 34.3967 40.7773H37.5453V39.4032C37.5453 38.7401 38.0835 38.202 38.7465 38.202C39.4104 38.202 39.9477 38.7401 39.9477 39.4032V40.7773H43.0971C45.3409 40.7773 47.1675 42.6031 47.1675 44.8476V45.5819H48.0876C48.7506 45.5819 49.2888 46.1201 49.2888 46.7831C49.2888 47.4461 48.7506 47.9843 48.0876 47.9843Z" fill="white"/>
<path d="M58.5291 23H37.9771C34.9605 23 32.5061 25.4544 32.5061 28.4709V31.7957H49.023C53.364 31.7957 56.8963 35.3279 56.8963 39.6689V47.997H58.5291C61.5456 47.997 64 45.5426 64 42.5261V28.4709C64 25.4544 61.5456 23 58.5291 23ZM49.0542 29.2717H38.512C37.8489 29.2717 37.3108 28.7335 37.3108 28.0705C37.3108 27.4075 37.8489 26.8693 38.512 26.8693H49.0542C49.7173 26.8693 50.2554 27.4075 50.2554 28.0705C50.2554 28.7335 49.7173 29.2717 49.0542 29.2717ZM57.9941 29.2717H53.8589C53.1959 29.2717 52.6577 28.7335 52.6577 28.0705C52.6577 27.4075 53.1959 26.8693 53.8589 26.8693H57.9941C58.6572 26.8693 59.1953 27.4075 59.1953 28.0705C59.1953 28.7335 58.6572 29.2717 57.9941 29.2717Z" fill="white"/>
</svg>
