<svg width="60" height="60" viewBox="0 0 60 60" fill="none" xmlns="http://www.w3.org/2000/svg">
<path d="M7.21148 0C3.22631 0 0.000644745 3.23146 0 7.20761C0 11.1876 3.22566 14.4184 7.21212 14.4184C11.1876 14.4184 14.4178 11.1876 14.4178 7.20761C14.4178 3.23082 11.187 0 7.21148 0Z" fill="white"/>
<path d="M0.991638 19.8876H13.4268V59.8966H0.991638V19.8876Z" fill="white"/>
<path d="M45.0838 18.893C39.0348 18.893 34.9787 22.2095 33.3185 25.3546H33.1522V19.8878H21.2257H21.225V59.8962H33.6493V40.1038C33.6493 34.8859 34.6428 29.8317 41.1122 29.8317C47.4887 29.8317 47.5738 35.7995 47.5738 40.4384V59.8956H60V37.951C60 27.1792 57.6757 18.893 45.0838 18.893Z" fill="white"/>
</svg>
