<svg width="30" height="30" viewBox="0 0 30 30" fill="none" xmlns="http://www.w3.org/2000/svg">
<g clip-path="url(#clip0_38_185)">
<path d="M30 15C30 18.1494 29.0296 21.0722 27.3704 23.4857C26.0094 25.4663 24.1849 27.1035 22.0537 28.241C19.9512 29.3638 17.55 30 15 30C12.45 30 10.0488 29.3638 7.94631 28.241C4.91818 26.6247 2.50957 24 1.16877 20.8157C0.416309 19.0273 0 17.062 0 15C0 6.71572 6.71572 0 15 0C17.613 0 20.0694 0.667969 22.2086 1.84283C24.2736 2.97609 26.0425 4.58203 27.3704 6.51428C29.0296 8.92775 30 11.8506 30 15Z" fill="#5C5560"/>
<path d="M27.3704 4.28391V23.4857C26.0094 25.4663 24.1849 27.1035 22.0537 28.241H15.1543L18.3643 10.2294V4.28391C18.3643 2.93573 19.4578 1.8429 20.8059 1.8429H24.9288C26.277 1.84284 27.3704 2.93573 27.3704 4.28391Z" fill="#EF7500"/>
<path d="M18.3643 10.2294V28.241H7.9463C4.91818 26.6247 2.50956 24 1.16876 20.8157C1.53978 19.939 2.40732 19.3243 3.41876 19.3243H9.35876V12.671C9.35876 11.3223 10.4516 10.2294 11.8004 10.2294H18.3643V10.2294Z" fill="#FFC600"/>
<path d="M27.3704 4.28414V19.2352L18.3646 10.2294V4.28414C18.3646 2.9359 19.4577 1.84277 20.8059 1.84277H24.9291C26.2772 1.84271 27.3704 2.93596 27.3704 4.28414Z" fill="#F77E00"/>
</g>
<defs>
<clipPath id="clip0_38_185">
<rect width="30" height="30" fill="white"/>
</clipPath>
</defs>
</svg>
