<svg width="30" height="30" viewBox="0 0 30 30" fill="none" xmlns="http://www.w3.org/2000/svg">
<g clip-path="url(#clip0_38_140)">
<path d="M19.3281 25.3689H25.6055C26.0909 25.3689 26.4844 24.9754 26.4844 24.49C26.4844 24.0046 26.0909 23.6111 25.6055 23.6111H19.3281C18.8427 23.6111 18.4492 24.0046 18.4492 24.49C18.4492 24.9754 18.8427 25.3689 19.3281 25.3689Z" fill="#CFDBFD"/>
<path d="M20.9805 8.00873C21.4659 8.00873 21.8594 7.61521 21.8594 7.12982V4.36572H25.6055C26.0909 4.36572 26.4844 3.97221 26.4844 3.48682C26.4844 3.00143 26.0909 2.60791 25.6055 2.60791H20.9805C20.4951 2.60791 20.1016 3.00143 20.1016 3.48682V7.12982C20.1016 7.61521 20.4951 8.00873 20.9805 8.00873Z" fill="#CFDBFD"/>
<path d="M24.7184 14.8151H29.1211C29.6065 14.8151 30 14.4216 30 13.9362C30 13.4508 29.6065 13.0573 29.1211 13.0573H24.7184C24.233 13.0573 23.8394 13.4508 23.8394 13.9362C23.8394 14.4216 24.233 14.8151 24.7184 14.8151Z" fill="#CFDBFD"/>
<path d="M23.4245 18.978H27.1225C27.6078 18.978 28.0014 18.5845 28.0014 18.0991C28.0014 17.6137 27.6078 17.2202 27.1225 17.2202H23.4245C22.9392 17.2202 22.5456 17.6137 22.5456 18.0991C22.5456 18.5845 22.9392 18.978 23.4245 18.978Z" fill="#CFDBFD"/>
<path d="M27.3633 5.08417C28.2455 5.08417 28.9607 4.369 28.9607 3.48679C28.9607 2.60458 28.2455 1.8894 27.3633 1.8894C26.4811 1.8894 25.7659 2.60458 25.7659 3.48679C25.7659 4.369 26.4811 5.08417 27.3633 5.08417Z" fill="#FFE370"/>
<path d="M27.3633 26.0873C28.2455 26.0873 28.9607 25.3722 28.9607 24.49C28.9607 23.6078 28.2455 22.8926 27.3633 22.8926C26.4811 22.8926 25.7659 23.6078 25.7659 24.49C25.7659 25.3722 26.4811 26.0873 27.3633 26.0873Z" fill="#FFE370"/>
<path d="M24.7266 3.48682C24.7266 2.03293 25.9094 0.850098 27.3633 0.850098C28.8172 0.850098 30 2.03293 30 3.48682C30 4.9407 28.8172 6.12354 27.3633 6.12354C25.9094 6.12354 24.7266 4.94076 24.7266 3.48682ZM26.4844 3.48682C26.4844 3.97145 26.8787 4.36572 27.3633 4.36572C27.8479 4.36572 28.2422 3.97145 28.2422 3.48682C28.2422 3.00219 27.8479 2.60791 27.3633 2.60791C26.8787 2.60791 26.4844 3.00219 26.4844 3.48682Z" fill="#FFB54C"/>
<path d="M24.7266 24.49C24.7266 23.0361 25.9094 21.8533 27.3633 21.8533C28.8172 21.8533 30 23.0361 30 24.49C30 25.9439 28.8172 27.1267 27.3633 27.1267C25.9094 27.1267 24.7266 25.9439 24.7266 24.49ZM26.4844 24.49C26.4844 24.9746 26.8787 25.3689 27.3633 25.3689C27.8479 25.3689 28.2422 24.9746 28.2422 24.49C28.2422 24.0054 27.8479 23.6111 27.3633 23.6111C26.8787 23.6111 26.4844 24.0053 26.4844 24.49Z" fill="#FFB54C"/>
<path d="M10.6719 25.3689H4.39453C3.90914 25.3689 3.51562 24.9754 3.51562 24.49C3.51562 24.0046 3.90914 23.6111 4.39453 23.6111H10.6719C11.1573 23.6111 11.5508 24.0046 11.5508 24.49C11.5508 24.9754 11.1573 25.3689 10.6719 25.3689Z" fill="#E8F1FD"/>
<path d="M9.01951 8.00873C8.53412 8.00873 8.14061 7.61521 8.14061 7.12982V4.36572H4.39453C3.90914 4.36572 3.51562 3.97221 3.51562 3.48682C3.51562 3.00143 3.90914 2.60791 4.39453 2.60791H9.01951C9.5049 2.60791 9.89842 3.00143 9.89842 3.48682V7.12982C9.89842 7.61521 9.5049 8.00873 9.01951 8.00873Z" fill="#E8F1FD"/>
<path d="M5.28164 14.8151H0.878906C0.393516 14.8151 0 14.4216 0 13.9362C0 13.4508 0.393516 13.0573 0.878906 13.0573H5.28164C5.76703 13.0573 6.16055 13.4508 6.16055 13.9362C6.16055 14.4216 5.76703 14.8151 5.28164 14.8151Z" fill="#E8F1FD"/>
<path d="M6.57544 18.978H2.87753C2.39214 18.978 1.99863 18.5845 1.99863 18.0991C1.99863 17.6137 2.39214 17.2202 2.87753 17.2202H6.57544C7.06083 17.2202 7.45435 17.6137 7.45435 18.0991C7.45435 18.5845 7.06083 18.978 6.57544 18.978Z" fill="#E8F1FD"/>
<path d="M2.63672 5.08417C3.51893 5.08417 4.2341 4.369 4.2341 3.48679C4.2341 2.60458 3.51893 1.8894 2.63672 1.8894C1.75451 1.8894 1.03934 2.60458 1.03934 3.48679C1.03934 4.369 1.75451 5.08417 2.63672 5.08417Z" fill="#FFEFB2"/>
<path d="M2.63672 26.0873C3.51893 26.0873 4.2341 25.3722 4.2341 24.49C4.2341 23.6078 3.51893 22.8926 2.63672 22.8926C1.75451 22.8926 1.03934 23.6078 1.03934 24.49C1.03934 25.3722 1.75451 26.0873 2.63672 26.0873Z" fill="#FFEFB2"/>
<path d="M2.63672 6.12354C1.18283 6.12354 0 4.9407 0 3.48682C0 2.03293 1.18283 0.850098 2.63672 0.850098C4.09061 0.850098 5.27344 2.03293 5.27344 3.48682C5.27344 4.9407 4.09061 6.12354 2.63672 6.12354ZM2.63672 2.60791C2.15209 2.60791 1.75781 3.00219 1.75781 3.48682C1.75781 3.97145 2.15209 4.36572 2.63672 4.36572C3.12135 4.36572 3.51562 3.97145 3.51562 3.48682C3.51562 3.00219 3.12135 2.60791 2.63672 2.60791Z" fill="#FFE370"/>
<path d="M2.63672 27.1267C1.18283 27.1267 0 25.9439 0 24.49C0 23.0361 1.18283 21.8533 2.63672 21.8533C4.09061 21.8533 5.27344 23.0361 5.27344 24.49C5.27344 25.9439 4.09061 27.1267 2.63672 27.1267ZM2.63672 23.6111C2.15209 23.6111 1.75781 24.0054 1.75781 24.49C1.75781 24.9746 2.15209 25.3689 2.63672 25.3689C3.12135 25.3689 3.51562 24.9746 3.51562 24.49C3.51562 24.0054 3.12135 23.6111 2.63672 23.6111Z" fill="#FFE370"/>
<path d="M24.3984 15.1314C23.3672 18.8128 20.8992 24.0494 15 28.3724C10.2762 24.9171 7.12441 20.4939 5.62499 15.2134C4.76249 12.1753 4.71621 9.67749 4.75253 8.5689C10.8041 6.64058 13.7525 4.58101 15 3.48706C16.2475 4.58101 19.1959 6.64116 25.2486 8.5689C25.2861 9.66343 25.2434 12.1138 24.3984 15.1314Z" fill="#94E671"/>
<path d="M24.3984 15.1314C23.3672 18.8128 20.8992 24.0494 15 28.3724V3.48706C16.2475 4.58101 19.1959 6.64116 25.2486 8.5689C25.2861 9.66343 25.2434 12.1138 24.3984 15.1314Z" fill="#52CC7B"/>
<path d="M15.5435 27.8471L15 27.1912C10.725 24.064 7.87207 20.0603 6.51503 15.2814C5.73457 12.5316 5.69296 10.2711 5.72578 9.26793C11.2025 7.52242 13.8709 5.65856 15 4.66832L15.5435 4.12803V3.35377L15 2.53375C14.7187 2.53375 14.4662 2.66852 14.301 2.89586C14.209 3.00719 12.085 5.48805 4.6289 7.7691C4.29492 7.87106 4.05292 8.16168 4.01308 8.50914C3.99843 8.63512 3.67089 11.6445 4.80117 15.681C5.46328 18.0447 6.4916 20.2771 7.85742 22.3168C9.56074 24.8609 11.7943 27.1068 14.4973 28.9918C14.6484 29.0972 14.8242 29.15 15 29.15L15.5435 28.4429V27.8471Z" fill="#52CC7B"/>
<path d="M15.5071 9.1583L15 8.43707C12.9252 8.43707 11.2371 10.1252 11.2371 12.2V13.5611C11.2371 14.0463 11.6309 14.44 12.116 14.44C12.6018 14.44 12.9949 14.0463 12.9949 13.5611V12.2C12.9949 11.0943 13.8943 10.1949 15 10.1949L15.5071 9.63326V9.1583Z" fill="#404A80"/>
<path d="M25.1988 15.681C24.5367 18.0447 23.5084 20.2771 22.1426 22.3168C20.4393 24.8609 18.2057 27.1068 15.5027 28.9918C15.3516 29.0972 15.1758 29.15 15 29.15V27.1912C20.3391 23.2783 22.5727 18.5392 23.5061 15.207C24.2707 12.4759 24.3094 10.2582 24.2754 9.26793C18.7975 7.52301 16.1291 5.65856 15 4.66832V2.53375C15.2812 2.53375 15.5338 2.66852 15.699 2.89586C15.791 3.00719 17.915 5.48805 25.3711 7.7691C25.7051 7.87106 25.9471 8.16168 25.9869 8.50914C26.0016 8.63512 26.3291 11.6445 25.1988 15.681Z" fill="#3D997A"/>
<path d="M18.7629 12.2V13.5611C18.7629 14.0463 18.3691 14.44 17.884 14.44C17.3982 14.44 17.0051 14.0463 17.0051 13.5611V12.2C17.0051 11.0943 16.1057 10.1949 15 10.1949V8.43707C17.0748 8.43707 18.7629 10.1252 18.7629 12.2Z" fill="#283366"/>
<path d="M15.7864 14.4398L15 12.6822H11.7656C10.882 12.6822 10.1637 13.4005 10.1637 14.2841V19.3173C10.1637 20.2009 10.882 20.9193 11.7656 20.9193H15L15.7864 18.8216V14.4398Z" fill="#FFE370"/>
<path d="M19.8363 14.2841V19.3173C19.8363 20.2009 19.118 20.9193 18.2344 20.9193H15V12.6822H18.2344C19.118 12.6822 19.8363 13.4005 19.8363 14.2841Z" fill="#FFB54C"/>
<path d="M15.8789 16.3736V17.2279C15.8789 17.7136 15.4852 18.1068 15 18.1068C14.5148 18.1068 14.1211 17.7136 14.1211 17.2279V16.3736C14.1211 15.8879 14.5148 15.4947 15 15.4947C15.4852 15.4947 15.8789 15.8878 15.8789 16.3736Z" fill="#404A80"/>
<path d="M15.8789 16.3736V17.2279C15.8789 17.7136 15.4852 18.1068 15 18.1068V15.4947C15.4852 15.4947 15.8789 15.8878 15.8789 16.3736Z" fill="#283366"/>
</g>
<defs>
<clipPath id="clip0_38_140">
<rect width="30" height="30" fill="white"/>
</clipPath>
</defs>
</svg>
