<svg preserveAspectRatio="none" width="100%" height="100%" overflow="visible" style="display: block;" viewBox="0 0 13 13" fill="none" xmlns="http://www.w3.org/2000/svg">
<g id="icon-foguete" clip-path="url(#clip0_0_8)">
<path id="Vector" d="M4.0012 6.75887C3.99297 6.75887 3.98474 6.75857 3.97641 6.75807L0.397321 6.53462C0.261144 6.52619 0.138952 6.44833 0.0736896 6.32862C0.00852696 6.2089 0.00932042 6.064 0.0759708 5.94498C0.0947163 5.91146 0.545797 5.11611 1.40481 4.42243C2.56564 3.48516 3.91511 3.18117 5.30724 3.54338C5.42278 3.57343 5.51859 3.65397 5.56818 3.76257C5.61777 3.87118 5.61579 3.99635 5.56273 4.10327L4.35657 6.53829C4.28933 6.67397 4.15117 6.75887 4.0012 6.75887Z" fill="var(--fill-0, #FF5B5B)"/>
<path id="Vector_2" d="M6.88651 13C6.82125 13 6.75599 12.9839 6.69678 12.9516C6.57706 12.8863 6.49921 12.7643 6.49068 12.6281L6.26732 9.04899C6.2574 8.8896 6.34399 8.73974 6.48711 8.66882L8.92213 7.46257C9.02914 7.4096 9.15421 7.40762 9.26282 7.45721C9.37152 7.5067 9.45196 7.60261 9.48201 7.71816C9.84432 9.11028 9.54033 10.4598 8.60296 11.6206C7.90938 12.4796 7.11394 12.9306 7.08041 12.9494C7.02021 12.9831 6.95336 13 6.88651 13Z" fill="var(--fill-0, #FF193D)"/>
<path id="Vector_3" d="M12.3891 3.20071L9.82468 0.636254C9.72193 0.533501 9.57118 0.495217 9.43182 0.536377C7.71508 1.04419 6.3058 1.84062 5.24287 2.90346C5.02119 3.12523 4.80825 3.36555 4.61008 3.61767C4.03384 4.35033 3.5525 5.21659 3.17958 6.19244C2.94204 6.81441 2.74863 7.48072 2.60472 8.17281C2.35339 9.38174 2.3399 10.2482 2.33941 10.2845C2.33812 10.3913 2.37997 10.4943 2.45555 10.5698C2.52994 10.6442 2.6309 10.686 2.73604 10.686H2.7409C2.7773 10.6856 3.64375 10.6721 4.85258 10.4208C5.54468 10.2769 6.21098 10.0835 6.83305 9.84581C7.80881 9.47289 8.67506 8.99166 9.40752 8.41551C9.65984 8.21724 9.90016 8.0043 10.1219 7.78253C11.1849 6.71959 11.9813 5.31031 12.489 3.59357C12.5303 3.45422 12.4919 3.30346 12.3891 3.20071Z" fill="var(--fill-0, #E1F1FA)"/>
<path id="Vector_4" d="M5.12355 9.8232L3.20219 7.90184C3.06036 7.76001 2.83492 7.74643 2.67702 7.8702C2.55434 7.96641 2.4376 8.06976 2.33008 8.17727C0.993207 9.51415 0.951848 11.5856 0.950757 11.673C0.949369 11.78 0.991224 11.8829 1.0669 11.9585C1.14129 12.033 1.24215 12.0747 1.34729 12.0747C1.34897 12.0747 1.35066 12.0747 1.35235 12.0746C1.43982 12.0735 3.51134 12.0322 4.84812 10.6953C4.95563 10.5878 5.05898 10.4711 5.15519 10.3484C5.27897 10.1905 5.26538 9.96503 5.12355 9.8232Z" fill="var(--fill-0, #FFF261)"/>
<path id="Vector_5" d="M3.21023 6.11309L2.03145 7.29197C1.95706 7.36626 1.91521 7.46713 1.91521 7.57236C1.91521 7.67749 1.95706 7.77836 2.03145 7.85275L5.17265 10.9939C5.24693 11.0683 5.3478 11.1101 5.45303 11.1101C5.55827 11.1101 5.65904 11.0683 5.73342 10.9939L6.9122 9.81517L3.21023 6.11309Z" fill="var(--fill-0, #1B3B6B)"/>
<path id="Vector_6" d="M8.3561 5.87922C8.03296 5.87922 7.72907 5.75336 7.50055 5.52484C7.02884 5.05313 7.02884 4.28566 7.50055 3.81385C7.72907 3.58534 8.03296 3.45948 8.3561 3.45948C8.67923 3.45948 8.98313 3.58534 9.21164 3.81385C9.44016 4.04237 9.56602 4.34616 9.56602 4.6694C9.56602 4.99253 9.44016 5.29633 9.21164 5.52484C8.98313 5.75336 8.67923 5.87922 8.3561 5.87922Z" fill="var(--fill-0, #06CCAB)"/>
<path id="Vector_7" d="M8.356 6.26712C7.92922 6.26712 7.52802 6.1009 7.22631 5.79918C6.60335 5.17622 6.60335 4.16258 7.22631 3.53961C7.52802 3.2379 7.92932 3.07167 8.356 3.07167C8.78278 3.07167 9.18397 3.2379 9.48578 3.53961C9.78759 3.84143 9.95372 4.24262 9.95372 4.6694C9.95372 5.09618 9.78759 5.49737 9.48578 5.79918C9.18397 6.1009 8.78278 6.26712 8.356 6.26712ZM8.356 3.86483C8.14117 3.86483 7.93904 3.94854 7.78709 4.10049C7.47347 4.4142 7.47347 4.92459 7.78709 5.23831C7.93904 5.39025 8.14117 5.47396 8.356 5.47396C8.57092 5.47396 8.77296 5.39025 8.92491 5.23831C9.07685 5.08636 9.16056 4.88433 9.16056 4.6694C9.16056 4.45447 9.07685 4.25244 8.92491 4.10049C8.77296 3.94854 8.57092 3.86483 8.356 3.86483Z" fill="var(--fill-0, #1B3B6B)"/>
<path id="Vector_8" d="M12.9093 0.11624C12.8336 0.0405637 12.73 -0.00198547 12.6237 9.73587e-05C12.5649 0.000791634 11.163 0.024397 9.43183 0.536375L12.489 3.59357C13.001 1.86244 13.0246 0.460501 13.0253 0.401686C13.0267 0.294768 12.9848 0.191817 12.9093 0.11624Z" fill="var(--fill-0, #FF5B5B)"/>
<path id="Vector_9" d="M12.3891 3.20071L11.1069 1.91848L2.45555 10.5698C2.52994 10.6442 2.6308 10.686 2.73594 10.686H2.7409C2.7772 10.6856 3.64365 10.6721 4.85258 10.4208C5.54468 10.2769 6.21088 10.0835 6.83296 9.84582C7.80881 9.47289 8.67507 8.99166 9.40753 8.41551C9.65975 8.21724 9.90016 8.0043 10.1218 7.78253C11.1848 6.71959 11.9812 5.31031 12.4889 3.59357C12.5303 3.45422 12.4919 3.30346 12.3891 3.20071Z" fill="var(--fill-0, #CDEBFC)"/>
<path id="Vector_10" d="M5.12355 9.8232L4.16287 8.86252L1.0668 11.9585V11.9586C1.14129 12.033 1.24215 12.0747 1.34729 12.0747H1.35225C1.43982 12.0736 3.51124 12.0322 4.84812 10.6953C4.95563 10.5878 5.05898 10.4711 5.15509 10.3484C5.27897 10.1905 5.26548 9.96503 5.12355 9.8232Z" fill="var(--fill-0, #FDBF00)"/>
<path id="Vector_11" d="M5.06126 7.96413L3.602 9.4234L5.17264 10.994C5.24693 11.0683 5.3478 11.1102 5.45303 11.1102C5.55826 11.1102 5.65903 11.0683 5.73342 10.994L6.9122 9.81517L5.06126 7.96413Z" fill="var(--fill-0, #001035)"/>
<path id="Vector_12" d="M9.21164 3.81385C9.21154 3.81385 9.21154 3.81385 9.21154 3.81385L7.50055 5.52484H7.50065C7.72907 5.75336 8.03296 5.87922 8.3561 5.87922C8.67923 5.87922 8.98313 5.75336 9.21164 5.52484C9.44016 5.29633 9.56602 4.99253 9.56602 4.6694C9.56592 4.34626 9.44016 4.04237 9.21164 3.81385Z" fill="var(--fill-0, #1CADB5)"/>
<path id="Vector_13" d="M9.48578 3.53961L8.92491 4.10049C9.07685 4.25244 9.16056 4.45447 9.16056 4.6694C9.16056 4.88433 9.07685 5.08636 8.92491 5.23831C8.77296 5.39025 8.57093 5.47396 8.356 5.47396C8.14107 5.47396 7.93904 5.39025 7.78709 5.23831C7.78709 5.23831 7.78709 5.23831 7.78709 5.23821L7.22621 5.79908V5.79918C7.52802 6.1009 7.92922 6.26712 8.356 6.26712C8.78278 6.26712 9.18397 6.1009 9.48578 5.79918C9.78749 5.49737 9.95372 5.09618 9.95372 4.6694C9.95372 4.24262 9.78749 3.84143 9.48578 3.53961Z" fill="var(--fill-0, #001035)"/>
<path id="Vector_14" d="M12.9092 0.116143L10.9604 2.06497L12.489 3.59357C13.001 1.86244 13.0246 0.460503 13.0253 0.401688C13.0267 0.29477 12.9848 0.191819 12.9092 0.116143Z" fill="var(--fill-0, #FF193D)"/>
</g>
<defs>
<clipPath id="clip0_0_8">
<rect width="13" height="13" fill="white"/>
</clipPath>
</defs>
</svg>
