<svg width="25" height="25" viewBox="0 0 25 25" fill="none" xmlns="http://www.w3.org/2000/svg">
<g clip-path="url(#clip0_23_116)">
<path d="M13.6363 0.000374648H11.3635C11.0498 0.000374648 10.7954 0.25473 10.7954 0.568502V1.13663H5.0114C4.69763 0.249166 3.72372 -0.216027 2.83626 0.0977452C1.9488 0.411517 1.4836 1.38542 1.79738 2.27288C2.11115 3.16035 3.08505 3.62554 3.97252 3.31177C4.45798 3.14008 4.83971 2.75835 5.0114 2.27288H7.24993C3.6194 4.54559 2.84103 9.5113 2.84103 9.57945C2.79453 9.88985 3.00835 10.179 3.31854 10.2257C3.32212 10.2263 3.3259 10.2267 3.32967 10.2273H3.40916C3.69431 10.23 3.93734 10.021 3.97728 9.73863C3.97728 9.65914 5.03982 2.72735 10.7954 2.27288V2.84101C10.7954 3.15478 11.0498 3.40914 11.3635 3.40914H13.6363C13.95 3.40914 14.2044 3.15478 14.2044 2.84101V2.27288C19.46 2.74444 21.0225 9.65914 21.0225 9.74995C21.0676 10.0278 21.3093 10.2308 21.5906 10.2273H21.7099C22.0183 10.1696 22.2216 9.87276 22.1639 9.56435C22.1623 9.55621 22.1607 9.54806 22.1588 9.53991C22.1588 9.47731 21.0225 4.54579 17.5112 2.27308H19.9884C20.3022 3.16055 21.2761 3.62574 22.1635 3.31197C23.051 2.9982 23.5162 2.02429 23.2024 1.13683C22.8886 0.249365 21.9147 -0.215828 21.0273 0.097944C20.5418 0.269634 20.1601 0.651367 19.9884 1.13683H14.2044V0.568701C14.2044 0.25473 13.95 0.000374648 13.6363 0.000374648Z" fill="white"/>
<path d="M12.5 15.9091C12.8138 15.9091 13.0681 15.6548 13.0681 15.341C13.0681 15.0272 12.8138 14.7729 12.5 14.7729C12.1862 14.7729 11.9319 15.0272 11.9319 15.341C11.9319 15.6548 12.1862 15.9091 12.5 15.9091Z" fill="white"/>
<path d="M7.55118 15.7444C8.63318 16.8922 9.35432 18.3323 9.62497 19.8864H15.3748C15.6455 18.3325 16.3666 16.8922 17.4486 15.7444C17.6121 15.5801 17.6594 15.3327 17.5678 15.1194L13.0681 4.43213V13.7388C13.9556 14.0525 14.4208 15.0264 14.107 15.9139C13.7932 16.8014 12.8193 17.2666 11.9319 16.9528C11.0444 16.639 10.5792 15.6651 10.893 14.7777C11.0647 14.2922 11.4464 13.9105 11.9319 13.7388V4.43213L7.43195 15.1194C7.34034 15.3327 7.38763 15.5801 7.55118 15.7444Z" fill="white"/>
<path d="M8.52271 24.4317C8.52271 24.7454 8.77706 24.9998 9.09083 24.9998H15.909C16.2227 24.9998 16.4771 24.7454 16.4771 24.4317V21.0227H8.52271V24.4317Z" fill="white"/>
</g>
<defs>
<clipPath id="clip0_23_116">
<rect width="25" height="25" fill="white"/>
</clipPath>
</defs>
</svg>
