<svg preserveAspectRatio="none" width="100%" height="100%" overflow="visible" style="display: block;" viewBox="0 0 12 15" fill="none" xmlns="http://www.w3.org/2000/svg">
<g id="icon-criatividade">
<path id="Vector" d="M7.06261 13.8793C7.06261 14.4662 6.58698 14.9418 5.99999 14.9418C5.413 14.9418 4.9374 14.4662 4.9374 13.8793C4.9374 13.2946 5.41303 12.819 5.99999 12.819C6.58698 12.819 7.06261 13.2946 7.06261 13.8793Z" fill="var(--fill-0, #474747)"/>
<path id="Vector_2" d="M5.99995 0.705748C5.91309 0.705748 5.84268 0.635396 5.84268 0.548478V0.15727C5.84268 0.0703222 5.91309 0 5.99995 0C6.08681 0 6.15722 0.0703515 6.15722 0.15727V0.548478C6.15722 0.635396 6.08681 0.705748 5.99995 0.705748Z" fill="var(--fill-0, #474747)"/>
<path id="Vector_3" d="M4.37669 11.3267H7.62329C7.8144 10.4289 8.29011 9.60797 8.96854 8.96147C9.7897 8.17899 10.301 7.07461 10.301 5.84978C10.301 3.47581 8.37577 1.54879 5.99997 1.54879C3.62418 1.54879 1.69898 3.47581 1.69898 5.84978C1.69898 7.07461 2.21024 8.17902 3.03143 8.96147C3.70989 9.60797 4.18558 10.4289 4.37669 11.3267Z" fill="var(--fill-0, #FDCF17)"/>
<path id="Vector_4" opacity="0.12" d="M7.11131 9.61296C6.65681 10.3812 5.98687 10.9778 5.2016 11.3267H7.62322C7.81424 10.4289 8.28964 9.60834 8.96783 8.96211C9.78902 8.17967 10.3016 7.07519 10.3016 5.84931C10.3016 3.78368 8.84305 2.057 6.89885 1.64388C8.27142 2.34534 9.22583 3.76688 9.25955 5.3839C9.28822 6.64521 8.77223 7.78846 7.92913 8.59114C7.60871 8.89631 7.33388 9.24031 7.11131 9.61296Z" fill="var(--fill-0, black)"/>
<g id="Group">
<path id="Vector_5" d="M1.75738 10.2426C1.69593 10.1812 1.69593 10.0816 1.75738 10.0202L2.03408 9.74358C2.09553 9.68213 2.19506 9.68213 2.25651 9.74358C2.31796 9.80503 2.31796 9.90455 2.25651 9.966L1.9798 10.2426C1.91835 10.3041 1.8188 10.3041 1.75738 10.2426Z" fill="var(--fill-0, #474747)"/>
<path id="Vector_6" d="M11.8427 6.15724H11.4515C11.3646 6.15724 11.2942 6.08688 11.2942 5.99997C11.2942 5.91302 11.3646 5.8427 11.4515 5.8427H11.8427C11.9296 5.8427 12 5.91305 12 5.99997C12 6.08688 11.9296 6.15724 11.8427 6.15724Z" fill="var(--fill-0, #474747)"/>
<path id="Vector_7" d="M0.548566 6.15738H0.15727C0.0704103 6.15738 0 6.08703 0 6.00011C0 5.91319 0.0704103 5.84284 0.15727 5.84284H0.548566C0.635425 5.84284 0.705836 5.91319 0.705836 6.00011C0.705836 6.08703 0.635425 6.15738 0.548566 6.15738Z" fill="var(--fill-0, #474747)"/>
<path id="Vector_8" d="M10.0202 10.2426L9.74353 9.966C9.68208 9.90455 9.68208 9.80503 9.74353 9.74358C9.80498 9.68213 9.9045 9.68213 9.96595 9.74358L10.2427 10.0202C10.3041 10.0816 10.3041 10.1812 10.2427 10.2426C10.1812 10.3041 10.0817 10.3041 10.0202 10.2426Z" fill="var(--fill-0, #474747)"/>
<path id="Vector_9" d="M2.03391 2.25647L1.7572 1.97986C1.69575 1.91841 1.69575 1.81889 1.7572 1.75743C1.81865 1.69598 1.91817 1.69598 1.97962 1.75743L2.25633 2.03405C2.31778 2.0955 2.31778 2.19502 2.25633 2.25647C2.19488 2.31793 2.09536 2.31793 2.03391 2.25647Z" fill="var(--fill-0, #474747)"/>
<path id="Vector_10" d="M8.40612 11.9367V13.2702C8.40612 13.6071 8.13303 13.8802 7.79614 13.8802H4.20483C3.86794 13.8802 3.59484 13.6071 3.59484 13.2702V11.9367C3.59484 11.5998 3.86794 11.3267 4.20483 11.3267H7.79611C8.133 11.3267 8.40612 11.5998 8.40612 11.9367Z" fill="var(--fill-0, #474747)"/>
</g>
<path id="Vector_11" opacity="0.12" d="M8.40489 11.9358V13.2709C8.40489 13.6081 8.134 13.8791 7.79675 13.8791H4.20598C3.86873 13.8791 3.59508 13.6081 3.59508 13.2709V13.1769C3.98485 13.3262 4.40778 13.4063 4.85283 13.4063C6.26538 13.4063 7.48718 12.5826 8.05939 11.3884C8.26392 11.4852 8.40489 11.6925 8.40489 11.9358Z" fill="var(--fill-0, black)"/>
<path id="Vector_12" d="M9.31645 5.90562C9.31645 7.68235 7.87578 9.12302 6.09811 9.12302C4.32043 9.12302 2.87977 7.68235 2.87977 5.90562C2.87977 4.12794 4.32043 2.68728 6.09811 2.68728C7.87578 2.68728 9.31645 4.12791 9.31645 5.90562Z" fill="var(--fill-0, #F14F4A)"/>
<path id="Vector_13" opacity="0.12" d="M9.31637 5.90532C9.31637 7.682 7.87536 9.12302 6.09789 9.12302C4.99412 9.12302 4.01968 8.56675 3.43963 7.7201C3.95621 8.07321 4.5815 8.2803 5.2552 8.2803C7.03267 8.2803 8.47368 6.83928 8.47368 5.0626C8.47368 4.3897 8.26736 3.7652 7.91425 3.24862C8.76091 3.82791 9.31637 4.80155 9.31637 5.90532Z" fill="var(--fill-0, black)"/>
<path id="Vector_14" d="M6.09804 8.34375C4.75311 8.34375 3.65895 7.25 3.65895 5.90562C3.65895 4.56075 4.75311 3.46658 6.09804 3.46658C7.44297 3.46658 8.53714 4.56075 8.53714 5.90562C8.53711 7.25003 7.44295 8.34375 6.09804 8.34375Z" fill="var(--fill-0, #E8F1F8)"/>
<path id="Vector_15" opacity="0.12" d="M8.53713 5.90533C8.53713 7.25032 7.44288 8.34378 6.09786 8.34378C5.23293 8.34378 4.47196 7.89147 4.03869 7.21063C4.41639 7.45106 4.86473 7.58994 5.34482 7.58994C6.68981 7.58994 7.7833 6.49649 7.7833 5.15229C7.7833 4.67222 7.64365 4.22468 7.40399 3.84695C8.08483 4.2794 8.53713 5.04119 8.53713 5.90533Z" fill="var(--fill-0, black)"/>
<path id="Vector_16" d="M6.09807 7.56451C5.18282 7.56451 4.43824 6.82034 4.43824 5.90562C4.43824 4.99044 5.18282 4.24583 6.09807 4.24583C7.01331 4.24583 7.75789 4.99041 7.75789 5.90562C7.75789 6.82034 7.01328 7.56451 6.09807 7.56451Z" fill="var(--fill-0, #F14F4A)"/>
<path id="Vector_17" opacity="0.12" d="M7.75791 5.90533C7.75791 6.82025 7.0136 7.56457 6.09788 7.56457C5.46307 7.56457 4.90998 7.20591 4.63066 6.6806C4.86237 6.8036 5.12741 6.87342 5.40753 6.87342C6.32245 6.87342 7.06676 6.12989 7.06676 5.21497C7.06676 4.93407 6.99694 4.66982 6.87395 4.43811C7.39922 4.71743 7.75791 5.27052 7.75791 5.90533Z" fill="var(--fill-0, black)"/>
<path id="Vector_18" d="M6.09804 6.78523C5.61248 6.78523 5.21748 6.39065 5.21748 5.90562C5.21748 5.42009 5.61248 5.02509 6.09804 5.02509C6.58359 5.02509 6.97862 5.42009 6.97862 5.90562C6.97859 6.39065 6.58359 6.78523 6.09804 6.78523Z" fill="var(--fill-0, #E8F1F8)"/>
<path id="Vector_19" opacity="0.12" d="M6.97871 5.90532C6.97871 6.39097 6.58353 6.78535 6.09792 6.78535C5.75988 6.78535 5.46549 6.59409 5.31791 6.31319C5.4409 6.37825 5.58058 6.41479 5.72815 6.41479C6.21377 6.41479 6.60815 6.02041 6.60815 5.53556C6.60815 5.38795 6.57164 5.2491 6.50736 5.12608C6.78745 5.27369 6.97871 5.56808 6.97871 5.90532Z" fill="var(--fill-0, black)"/>
<path id="Vector_20" d="M10.5393 1.51413L11.2846 1.69041L10.3932 2.5818L9.6479 2.40552L9.47162 1.66021L10.363 0.768787L10.5393 1.51413Z" fill="var(--fill-0, #F78721)"/>
<path id="Vector_21" d="M6.03706 6.01639C5.97561 5.95494 5.97561 5.85542 6.03706 5.79397L10.7127 1.11831C10.7741 1.05686 10.8736 1.05686 10.9351 1.11831C10.9965 1.17976 10.9965 1.27928 10.9351 1.34073L6.25949 6.01639C6.19807 6.07781 6.09852 6.07784 6.03706 6.01639Z" fill="var(--fill-0, #474747)"/>
</g>
</svg>
