<svg width="86" height="86" viewBox="0 0 86 86" fill="none" xmlns="http://www.w3.org/2000/svg">
<circle cx="43" cy="43" r="32.5" stroke="white"/>
<g clip-path="url(#clip0_33_104)">
<path d="M21 42.5C21 30.6449 30.6449 21 42.5 21C47.2879 21 51.8197 22.5404 55.6056 25.4548L50.6094 31.9449C48.2686 30.143 45.4643 29.1905 42.5 29.1905C35.1611 29.1905 29.1905 35.1611 29.1905 42.5C29.1905 49.8389 35.1611 55.8095 42.5 55.8095C48.4109 55.8095 53.4339 51.9369 55.1649 46.5952H42.5V38.4048H64V42.5C64 54.3551 54.3551 64 42.5 64C30.6449 64 21 54.3551 21 42.5Z" fill="white"/>
</g>
<defs>
<clipPath id="clip0_33_104">
<rect width="43" height="43" fill="white" transform="translate(21 21)"/>
</clipPath>
</defs>
</svg>
