<svg width="128" height="100" viewBox="0 0 128 100" fill="none" xmlns="http://www.w3.org/2000/svg">
<path d="M49.3468 29H47.1307C46.3594 29 45.107 29.2925 44.0475 30.46C42.9874 31.6283 40 34.4521 40 40.1952C40 45.9382 44.1441 51.4874 44.7217 52.2671C45.3 53.046 52.7211 65.2078 64.4749 69.8865C74.2434 73.7746 76.2317 73.0012 78.3512 72.8064C80.4716 72.6125 85.1933 69.9834 86.1569 67.2582C87.1206 64.5328 87.1206 62.1962 86.8318 61.7083C86.5422 61.2219 85.7709 60.9302 84.615 60.3468C83.4583 59.7626 77.7906 56.8911 76.7305 56.5008C75.6703 56.1122 74.8998 55.9174 74.1283 57.0865C73.3569 58.2534 71.0861 60.9528 70.4111 61.7318C69.7371 62.5114 69.0622 62.6092 67.9055 62.025C66.7488 61.4393 63.0626 60.185 58.6451 56.2091C55.2068 53.1148 52.8208 49.1688 52.1459 48.0005C51.4719 46.8329 52.0741 46.2011 52.654 45.6185C53.1736 45.096 53.8755 44.3813 54.454 43.7003C55.0314 43.0183 55.1959 42.5318 55.582 41.753C55.9674 40.974 55.7743 40.2922 55.4855 39.7088C55.1959 39.1247 52.9767 33.3526 51.9482 31.0442C51.0818 29.1001 50.1708 29.0344 49.3468 29Z" fill="white"/>
<path d="M99.2229 14.5218C89.8198 5.16274 77.3108 0.00532258 63.9977 0C50.7144 0 38.1855 5.1529 28.7205 14.5095C19.2387 23.8823 14.0123 36.3381 14 49.5369V49.5521V49.5613C14.0015 57.55 16.1024 65.609 20.0903 72.9652L14.1366 100L41.509 93.7797C48.4416 97.2702 56.1769 99.1105 63.9786 99.1134H63.9984C77.2795 99.1134 89.8084 93.9598 99.2748 84.6024C108.765 75.2219 113.994 62.7823 114 49.575C114.004 36.4608 108.757 24.0119 99.2229 14.5218ZM63.9977 91.3085H63.9802C56.975 91.3055 50.0339 89.5485 43.9085 86.226L42.614 85.524L24.4126 89.6598L28.3661 71.7095L27.604 70.3965C23.8147 63.8679 21.8124 56.6613 21.8124 49.5529C21.8268 26.545 40.7492 7.80484 63.9961 7.80484C75.2268 7.80952 85.7792 12.159 93.7092 20.0508C101.759 28.0647 106.191 38.549 106.187 49.5727C106.178 72.5861 87.2516 91.3085 63.9977 91.3085Z" fill="white"/>
</svg>
