<svg width="86" height="86" viewBox="0 0 86 86" fill="none" xmlns="http://www.w3.org/2000/svg">
<circle cx="43" cy="43" r="32.5" stroke="white"/>
<path d="M64.3398 57.0655H63.2471V33.798C63.2471 31.4196 61.312 29.4845 58.9336 29.4845H54.0208C53.6561 29.4845 53.3606 29.78 53.3606 30.1447C53.3606 30.5093 53.6561 30.8048 54.0208 30.8048H58.9336C60.584 30.8048 61.9268 32.1476 61.9268 33.798V57.0655H47.1699C46.7194 57.0655 46.2991 57.2877 46.0458 57.6602L45.8478 57.9511C45.6639 58.2214 45.3589 58.3827 45.0319 58.3827H39.88C39.553 58.3827 39.248 58.2214 39.064 57.9511L38.8662 57.6602C38.6129 57.2879 38.1926 57.0655 37.7421 57.0655H23.0732V33.798C23.0732 32.1476 24.416 30.8048 26.0664 30.8048H30.3182C30.6828 30.8048 30.9783 30.5093 30.9783 30.1447C30.9783 29.78 30.6828 29.4845 30.3182 29.4845H26.0664C23.688 29.4845 21.7529 31.4195 21.7529 33.798V57.0655H20.6602C20.2955 57.0655 20 57.361 20 57.7256V59.1001C20 61.585 22.0216 63.6066 24.5065 63.6066H60.4935C62.9784 63.6066 65 61.585 65 59.1001V57.7256C65 57.361 64.7045 57.0655 64.3398 57.0655ZM63.6797 59.1001C63.6797 60.857 62.2503 62.2863 60.4935 62.2863H24.5065C22.7497 62.2863 21.3203 60.857 21.3203 59.1001V58.3858H37.7421C37.7551 58.3858 37.7672 58.3921 37.7746 58.403L37.9726 58.6939C38.4027 59.3258 39.1156 59.703 39.88 59.703H45.0319C45.7963 59.703 46.5092 59.3258 46.9393 58.6939L47.1373 58.403L47.1373 58.4029C47.1447 58.3921 47.1568 58.3858 47.1698 58.3858H63.6796V59.1001H63.6797Z" fill="white"/>
<path d="M24.5696 54.909C24.5696 55.2737 24.8651 55.5691 25.2297 55.5691H59.7703C60.1349 55.5691 60.4304 55.2737 60.4304 54.909V33.798C60.4304 32.9726 59.7589 32.3011 58.9336 32.3011H54.0208C53.6561 32.3011 53.3606 32.5966 53.3606 32.9612C53.3606 33.3259 53.6561 33.6214 54.0208 33.6214H58.9336C59.0309 33.6214 59.1101 33.7005 59.1101 33.798V54.2488H49.5339V51.5535C49.5339 50.1201 48.9757 48.7725 47.9621 47.7588L47.1026 46.8993C47.4075 46.4265 47.6436 45.9016 47.793 45.3357C47.8861 44.9832 47.6757 44.6221 47.3232 44.5289C46.9705 44.4362 46.6096 44.6463 46.5164 44.9988C46.3634 45.5783 46.0912 46.1019 45.731 46.5467C45.7283 46.5499 45.7257 46.553 45.7231 46.5561C44.9521 47.5026 43.78 48.0895 42.5 48.0895C40.2094 48.0895 38.3457 46.2258 38.3457 43.9352C38.3457 41.6445 40.2094 39.7809 42.5 39.7809C44.2676 39.7809 45.8447 40.9027 46.4245 42.5724C46.544 42.9168 46.9197 43.0991 47.2646 42.9795C47.6091 42.86 47.7913 42.4838 47.6717 42.1394C46.9077 39.939 44.8294 38.4606 42.5 38.4606C39.4813 38.4606 37.0254 40.9164 37.0254 43.9352C37.0254 45.0261 37.3474 46.0426 37.8995 46.8972L37.0379 47.7588C36.0243 48.7726 35.4661 50.1201 35.4661 51.5535V54.2488H25.8899V51.8303C25.8899 51.4656 25.5944 51.1702 25.2297 51.1702C24.8651 51.1702 24.5696 51.4656 24.5696 51.8303V54.909ZM36.7864 51.5534C36.7864 50.4727 37.2073 49.4567 37.9716 48.6924L38.7479 47.9161C39.7286 48.8411 41.0488 49.4097 42.5 49.4097C43.933 49.4097 45.2631 48.851 46.2542 47.9181L47.0285 48.6923C47.7928 49.4566 48.2137 50.4726 48.2137 51.5533V54.2487H36.7864V51.5534Z" fill="white"/>
<path d="M25.2297 49.6747C25.5944 49.6747 25.8899 49.3792 25.8899 49.0145V33.798C25.8899 33.7006 25.969 33.6214 26.0664 33.6214H30.3182C30.6828 33.6214 30.9783 33.3259 30.9783 32.9612C30.9783 32.5966 30.6828 32.3011 30.3182 32.3011H26.0664C25.241 32.3011 24.5696 32.9726 24.5696 33.798V49.0145C24.5696 49.3791 24.8651 49.6747 25.2297 49.6747Z" fill="white"/>
<path d="M35.1685 37.0654H49.1705C50.753 37.0654 52.0403 35.778 52.0403 34.1955V24.2633C52.0403 22.6808 50.7529 21.3934 49.1705 21.3934H35.1685C33.5859 21.3934 32.2986 22.6809 32.2986 24.2633V25.6459C32.2986 26.0105 32.5941 26.306 32.9588 26.306C33.3235 26.306 33.6189 26.0105 33.6189 25.6459V24.2633C33.6189 23.4088 34.314 22.7137 35.1685 22.7137H49.1705C50.0249 22.7137 50.72 23.4088 50.72 24.2633V34.1955C50.72 35.05 50.0249 35.745 49.1705 35.745H35.1685C34.314 35.745 33.6189 35.05 33.6189 34.1955V28.4615C33.6189 28.0969 33.3235 27.8014 32.9588 27.8014C32.5941 27.8014 32.2986 28.0969 32.2986 28.4615V34.1955C32.2986 35.778 33.586 37.0654 35.1685 37.0654Z" fill="white"/>
<path d="M40.407 33.3213C40.7035 33.3213 41 33.2421 41.2696 33.0838L45.33 30.6981C45.8563 30.3887 46.1705 29.8398 46.1705 29.2293C46.1705 28.6189 45.8562 28.0699 45.33 27.7608L41.2695 25.3751C40.7363 25.0619 40.0974 25.0582 39.5607 25.3654C39.0238 25.6726 38.7034 26.2253 38.7034 26.8437V31.6151C38.7034 32.2336 39.0239 32.7863 39.5607 33.0935C39.8261 33.2454 40.1166 33.3213 40.407 33.3213ZM40.0236 26.8436C40.0236 26.6432 40.1584 26.5445 40.2163 26.5113C40.2513 26.4913 40.3209 26.4593 40.4087 26.4593C40.4664 26.4593 40.532 26.4732 40.6006 26.5135L44.6612 28.8992C44.8318 28.9993 44.8501 29.1634 44.8501 29.2293C44.8501 29.2952 44.8317 29.4593 44.6611 29.5595L40.6007 31.9452C40.4277 32.0468 40.2744 31.9805 40.2165 31.9474C40.1585 31.9142 40.0237 31.8154 40.0237 31.615V26.8436H40.0236Z" fill="white"/>
</svg>
