<svg width="30" height="30" viewBox="0 0 30 30" fill="none" xmlns="http://www.w3.org/2000/svg">
<g clip-path="url(#clip0_15_22)">
<path d="M24.2555 15.6445H29.3555C29.7115 15.6445 30 15.3559 30 15V4.51215C30 4.15621 29.7115 3.86765 29.3555 3.86765H26.7775C26.4216 3.86765 26.133 4.15621 26.133 4.51215C26.133 4.86809 26.4216 5.15665 26.7775 5.15665H28.711V14.3555H24.2555V15.6445Z" fill="#C85214"/>
<path d="M5.74447 24.8433H1.28901V15.6445H3.22252C3.57847 15.6445 3.86703 15.3559 3.86703 15C3.86703 14.6441 3.57847 14.3555 3.22252 14.3555H0.644505C0.288562 14.3555 0 14.6441 0 15V25.4879C0 25.8438 0.288562 26.1324 0.644505 26.1324H5.74447V24.8433Z" fill="#C85214"/>
<path d="M10.9604 2.57864H8.38236C8.02642 2.57864 7.73785 2.86721 7.73785 3.22315V5.80117C7.73785 6.15711 8.02642 6.44567 8.38236 6.44567H10.9604C11.3163 6.44567 11.6049 6.15711 11.6049 5.80117V3.22315C11.6049 2.86721 11.3164 2.57864 10.9604 2.57864ZM10.3159 5.15666H9.02686V3.86765H10.3159V5.15666Z" fill="#C85214"/>
<path d="M10.204 23.5544H9.13877C8.3663 23.5544 7.73785 24.1828 7.73785 24.9553V26.0205C7.73785 26.793 8.3663 27.4214 9.13877 27.4214H10.204C10.9765 27.4214 11.6049 26.793 11.6049 26.0205V24.9552C11.6049 24.1828 10.9764 23.5544 10.204 23.5544ZM10.3159 26.0205C10.3159 26.0822 10.2657 26.1324 10.204 26.1324H9.13871C9.07702 26.1324 9.0268 26.0822 9.0268 26.0205V24.9552C9.0268 24.8935 9.07696 24.8433 9.13871 24.8433H10.204C10.2657 24.8433 10.3159 24.8935 10.3159 24.9552V26.0205Z" fill="#C85214"/>
<path d="M9.67137 13.0665C8.60524 13.0665 7.73785 13.9339 7.73785 15C7.73785 16.0661 8.60524 16.9335 9.67137 16.9335C10.7375 16.9335 11.6049 16.0661 11.6049 15C11.6049 13.9339 10.7376 13.0665 9.67137 13.0665ZM9.67137 15.6445C9.31601 15.6445 9.02686 15.3554 9.02686 15C9.02686 14.6447 9.31601 14.3555 9.67137 14.3555C10.0267 14.3555 10.3159 14.6447 10.3159 15C10.3159 15.3554 10.0268 15.6445 9.67137 15.6445Z" fill="#C85214"/>
<path d="M13.5384 3.86768H21.6189C21.9748 3.86768 22.2634 3.57912 22.2634 3.22318C22.2634 2.86724 21.9748 2.57867 21.6189 2.57867H13.5384C13.1825 2.57867 12.8939 2.86724 12.8939 3.22318C12.8939 3.57912 13.1825 3.86768 13.5384 3.86768Z" fill="white"/>
<path d="M13.5384 6.44569H18.5403C18.8962 6.44569 19.1848 6.15712 19.1848 5.80118C19.1848 5.44524 18.8962 5.15668 18.5403 5.15668H13.5384C13.1825 5.15668 12.8939 5.44524 12.8939 5.80118C12.8939 6.15712 13.1825 6.44569 13.5384 6.44569Z" fill="white"/>
<path d="M24.1969 0.000640869H5.80436C5.44841 0.000640869 5.15985 0.289203 5.15985 0.645146V8.3792C5.15985 8.73515 5.44841 9.02371 5.80436 9.02371H24.1969C24.5528 9.02371 24.8414 8.73515 24.8414 8.3792V0.645146C24.8414 0.289203 24.5529 0.000640869 24.1969 0.000640869ZM23.5524 7.7347H6.44886V1.28965H23.5524V7.7347H23.5524Z" fill="white"/>
<path d="M13.5384 14.3555H21.6189C21.9748 14.3555 22.2634 14.0669 22.2634 13.711C22.2634 13.3551 21.9748 13.0665 21.6189 13.0665H13.5384C13.1825 13.0665 12.8939 13.3551 12.8939 13.711C12.8939 14.0669 13.1825 14.3555 13.5384 14.3555Z" fill="white"/>
<path d="M13.5384 16.9335H18.5403C18.8962 16.9335 19.1848 16.645 19.1848 16.289C19.1848 15.9331 18.8962 15.6445 18.5403 15.6445H13.5384C13.1825 15.6445 12.8939 15.9331 12.8939 16.289C12.8939 16.645 13.1825 16.9335 13.5384 16.9335Z" fill="white"/>
<path d="M24.1969 10.4885H5.80436C5.44841 10.4885 5.15985 10.7771 5.15985 11.133V18.8671C5.15985 19.223 5.44841 19.5116 5.80436 19.5116H24.1969C24.5528 19.5116 24.8414 19.223 24.8414 18.8671V11.133C24.8414 10.7771 24.5529 10.4885 24.1969 10.4885ZM23.5524 18.2226H6.44886V11.7775H23.5524V18.2226H23.5524Z" fill="white"/>
<path d="M13.5384 24.8434H21.6189C21.9748 24.8434 22.2634 24.5548 22.2634 24.1989C22.2634 23.8429 21.9748 23.5544 21.6189 23.5544H13.5384C13.1825 23.5544 12.8939 23.8429 12.8939 24.1989C12.8939 24.5548 13.1825 24.8434 13.5384 24.8434Z" fill="white"/>
<path d="M13.5384 27.4214H18.5403C18.8962 27.4214 19.1848 27.1328 19.1848 26.7769C19.1848 26.4209 18.8962 26.1324 18.5403 26.1324H13.5384C13.1825 26.1324 12.8939 26.4209 12.8939 26.7769C12.8939 27.1328 13.1825 27.4214 13.5384 27.4214Z" fill="white"/>
<path d="M24.1969 20.9763H5.80436C5.44841 20.9763 5.15985 21.2649 5.15985 21.6209V29.3549C5.15985 29.7109 5.44841 29.9994 5.80436 29.9994H24.1969C24.5528 29.9994 24.8414 29.7109 24.8414 29.3549V21.6209C24.8414 21.2649 24.5529 20.9763 24.1969 20.9763ZM23.5524 28.7104H6.44886V22.2654H23.5524V28.7104H23.5524Z" fill="white"/>
</g>
<defs>
<clipPath id="clip0_15_22">
<rect width="30" height="30" fill="white"/>
</clipPath>
</defs>
</svg>
