<svg preserveAspectRatio="none" width="100%" height="100%" overflow="visible" style="display: block;" viewBox="0 0 10 15" fill="none" xmlns="http://www.w3.org/2000/svg">
<g id="XMLID_1273_">
<path id="XMLID_1274_" d="M8.49303 3.97057L5.25197 7.75443H8.49303L0 14.0384L3.62805 9.32435H0.929892L4.17096 5.54049H0.743462L8.49303 0L5.60845 3.97057H8.49303Z" fill="var(--fill-0, #FFE360)"/>
<path id="XMLID_1275_" d="M7.56568 1.27645L2.49478 4.90184H5.92227L2.68121 8.6857H5.37936L2.92611 11.8736L0 14.0384L3.62805 9.32435H0.929892L4.17096 5.54049H0.743462L8.49303 0L7.56568 1.27645Z" fill="var(--fill-0, #FFC55E)"/>
<path id="XMLID_1276_" d="M0.3043 4.29525L1.4598 2.63404H0.222412L3.62466 0.201647L2.35823 1.94477H3.62466L0.3043 4.29525Z" fill="var(--fill-0, #FFC55E)"/>
<path id="XMLID_1277_" d="M5.83192 12.9543L6.98742 11.2931H5.75003L9.15227 8.8607L7.88587 10.6038H9.15227L5.83192 12.9543Z" fill="var(--fill-0, #FFC55E)"/>
</g>
</svg>
