<svg width="32" height="32" viewBox="0 0 32 32" fill="none" xmlns="http://www.w3.org/2000/svg">
<g clip-path="url(#clip0_15_13)">
<path d="M0.580186 3.75939C0.468356 3.83493 0.379867 3.96388 0.31717 4.14759C0.254659 4.33098 0.322131 4.56598 0.523455 4.86606C0.676946 5.09483 0.914218 5.36297 1.21913 5.65185C1.06216 5.74045 0.957198 5.88143 0.908183 6.07254C0.864881 6.24124 0.935078 6.44357 1.1168 6.67389C1.29562 6.90049 1.59304 7.16387 1.98467 7.44223C1.9597 7.50129 1.94111 7.56479 1.9304 7.63355C1.88486 7.92562 2.06897 8.29938 2.4228 8.63336C2.56795 8.77035 2.79718 8.95133 3.13088 9.12426C3.08298 9.20224 3.04771 9.3065 3.05019 9.44706C3.05234 9.57009 3.10899 9.75611 3.36662 9.94365C3.51277 10.0501 3.72262 10.1522 3.98994 10.2394C3.95243 10.3234 3.93062 10.4315 3.94957 10.5704C3.96649 10.6945 4.04599 10.8754 4.32866 11.0322C4.54609 11.1528 4.87965 11.251 5.31396 11.3C5.28272 11.3298 5.25359 11.3614 5.22948 11.3969C5.161 11.4977 5.09615 11.6676 5.17631 11.9047C5.2156 12.021 5.32475 12.1792 5.6216 12.273C5.74757 12.3128 5.89484 12.3378 6.06099 12.3478C6.07184 12.4018 6.08962 12.4564 6.11623 12.5111C6.18132 12.6449 6.32619 12.7381 6.54678 12.7881C6.63875 12.8089 6.74594 12.8223 6.86662 12.8277C6.8542 12.943 6.87977 13.0624 6.94475 13.1799C7.01618 13.309 7.16391 13.3934 7.38393 13.4309C7.46805 13.4452 7.56357 13.4524 7.66928 13.4524C7.72323 13.4524 7.78045 13.4501 7.8395 13.4463C7.83945 13.4464 7.83938 13.4465 7.83933 13.4467C7.77819 13.6091 7.79927 13.7822 7.90031 13.9471C7.95735 14.0402 8.08013 14.158 8.34112 14.1904C8.38799 14.1962 8.43797 14.1992 8.49108 14.1992C8.52708 14.1992 8.56496 14.1973 8.60369 14.1946C8.5988 14.3217 8.64049 14.4476 8.72765 14.5643C8.79203 14.6505 8.92287 14.7548 9.18085 14.7627C9.19139 14.763 9.20207 14.7632 9.21289 14.7632C9.37837 14.7632 9.57815 14.725 9.8049 14.6481C9.83298 14.7073 9.87216 14.7636 9.92274 14.8161C9.99937 14.8955 10.136 14.984 10.3645 14.984C10.3934 14.984 10.4239 14.9826 10.4558 14.9795C10.8895 14.9383 11.5397 14.5915 12.3104 13.8046C12.328 13.8055 12.3456 13.8068 12.3632 13.8075C10.8061 16.205 9.87977 19.5623 9.83241 19.7364C9.7866 19.9048 9.80032 20.0749 9.85946 20.2257C9.28644 19.8871 8.5349 19.9621 8.04298 20.4541L8.45726 20.8684C8.6315 20.6942 8.85946 20.6061 9.08831 20.6032L1.63608 28.0555L0.974308 29.6363L2.55511 28.9745L10.0063 21.5234C10.0031 21.7623 9.90996 21.9856 9.74225 22.1533L10.1565 22.5677C10.4379 22.2863 10.5929 21.911 10.5929 21.5109C10.5929 21.2256 10.5128 20.9536 10.3656 20.7187L10.3877 20.6966C10.4542 20.7141 10.521 20.7229 10.5867 20.7229C10.9304 20.7229 11.2453 20.4943 11.3401 20.1468C11.3428 20.1368 11.4021 19.9223 11.5113 19.573L12.4316 18.6527L11.9791 18.2002C12.3226 17.2684 12.7924 16.145 13.3587 15.1633V17.1315C15.6518 15.3528 16.7913 13.1292 17.223 12.1097H14.1135C14.0961 12.1097 14.079 12.1112 14.0619 12.1123L13.0406 9.91394C12.8705 9.54767 12.5635 9.26791 12.1981 9.14631L11.7772 9.00623C11.9557 6.83229 13.7808 5.11749 16 5.11749C18.2192 5.11749 20.0442 6.83227 20.2228 9.0062L19.8019 9.14631C19.4365 9.2679 19.1295 9.54767 18.9594 9.91394L18.053 11.8649C17.8336 12.506 16.6219 15.6642 13.3597 17.9837L13.3587 17.9824V18.2873C13.3665 18.2887 13.3743 18.289 13.382 18.291C13.3955 18.2946 14.7487 18.647 15.9735 18.6664C15.9826 18.6666 15.9912 18.6685 16 18.6695C16.0089 18.6685 16.0174 18.6666 16.0265 18.6664C16.1904 18.6638 16.3565 18.6551 16.5215 18.6422C16.3801 17.9029 16.4004 17.1213 16.6127 16.3477C17.0041 14.9211 17.9694 13.8032 19.1909 13.1732C19.107 13.0636 19.0218 12.9571 18.9349 12.8548L19.8208 10.9477C19.9329 10.7064 20.1331 10.5214 20.37 10.4402L22.8479 9.59068C22.8607 9.58578 23.1881 9.4581 23.7263 9.20895C24.0882 9.14234 24.4475 9.05816 24.8019 8.95842C23.7892 9.74136 22.8942 10.6215 22.8942 11.2875C22.8942 11.7468 22.6116 12.225 22.0985 12.6381C22.2205 12.6521 22.3428 12.6721 22.465 12.6953C22.5891 12.5793 22.6979 12.4589 22.7907 12.3354C23.5869 12.6468 24.3061 12.7994 24.845 12.8253C24.8626 12.893 24.8516 12.963 24.8075 13.0427C24.7813 13.0899 24.692 13.1306 24.5685 13.1517C24.3587 13.1874 24.0705 13.1742 23.7287 13.1107C23.9386 13.2117 24.1393 13.3259 24.3299 13.4524C24.3302 13.4524 24.3304 13.4524 24.3307 13.4524C24.4363 13.4524 24.532 13.4452 24.6161 13.4309C24.8361 13.3934 24.9838 13.309 25.0552 13.1799C25.1202 13.0624 25.1458 12.943 25.1334 12.8277C25.2541 12.8223 25.3613 12.8089 25.4532 12.7881C25.6738 12.7381 25.8187 12.6449 25.8838 12.5111C25.9104 12.4564 25.9282 12.4018 25.939 12.3478C26.1051 12.3378 26.2525 12.3127 26.3783 12.273C26.6752 12.1792 26.7843 12.021 26.8236 11.9047C26.9038 11.6676 26.8389 11.4977 26.7705 11.3969C26.7464 11.3614 26.7172 11.3298 26.686 11.3C27.1203 11.2509 27.4539 11.1528 27.6713 11.0322C27.954 10.8753 28.0335 10.6945 28.0504 10.5704C28.0693 10.4315 28.0475 10.3234 28.01 10.2394C28.2773 10.1522 28.4872 10.0501 28.6333 9.9437C28.891 9.75611 28.9477 9.57009 28.9498 9.44707C28.9523 9.30648 28.917 9.20223 28.869 9.12423C29.2028 8.95132 29.432 8.77035 29.5772 8.63337C29.931 8.29939 30.1151 7.92563 30.0696 7.63356C30.0589 7.56479 30.0403 7.50128 30.0153 7.44222C30.407 7.16387 30.7044 6.90049 30.8832 6.67389C31.0649 6.44357 31.1351 6.24124 31.0918 6.07254C31.0428 5.88145 30.9378 5.74043 30.7809 5.65188C31.0858 5.36299 31.3231 5.09484 31.4766 4.86606C31.6778 4.56597 31.7453 4.33093 31.6828 4.14759C31.6201 3.96387 31.5316 3.83491 31.4198 3.75938C31.4324 3.74537 31.4453 3.73158 31.4579 3.71752C31.8404 3.27958 32.1035 2.34929 31.9605 1.93992C31.8984 1.76215 31.7757 1.71489 31.7081 1.70254C31.4793 1.66039 31.1857 1.86438 30.786 2.34157C27.3631 6.28198 22.4553 8.2601 22.4137 8.27689L20.9917 8.75027C20.6914 6.26175 18.5681 4.32646 16 4.32646C13.4318 4.32646 11.3085 6.26181 11.0083 8.75038L9.59377 8.27965C9.54461 8.26015 4.63858 6.28398 1.2156 2.34348C0.814382 1.86448 0.52116 1.66091 0.291896 1.70254C0.224277 1.71488 0.101588 1.76214 0.0394964 1.93991C-0.103516 2.34929 0.159568 3.27958 0.543339 3.7189C0.555536 3.7325 0.567939 3.74584 0.580186 3.75939ZM0.306867 2.03333C0.311975 2.01869 0.325755 1.98426 0.342776 1.98111C0.360658 1.97782 0.530086 1.96614 1.00016 2.52725C4.46949 6.52121 9.43956 8.52312 9.49683 8.54563L12.1086 9.41507C12.4003 9.51212 12.6464 9.73743 12.7838 10.0333L13.7821 12.1822C13.7065 12.2162 13.6349 12.2623 13.5708 12.3218C13.4688 12.4167 13.3685 12.5177 13.27 12.6237L12.436 10.8284C12.2916 10.5176 12.0313 10.2785 11.7218 10.1724L9.25372 9.32633C9.20333 9.30697 4.17508 7.3444 0.755396 3.53117C0.42689 3.15512 0.207636 2.31739 0.306867 2.03333ZM10.1266 14.6194C10.1028 14.5948 10.0856 14.5701 10.0714 14.5451C10.4772 14.3694 10.9507 14.0856 11.4632 13.6854C11.6209 13.7222 11.7808 13.7511 11.9417 13.7718C11.2991 14.389 10.7693 14.6652 10.429 14.6976C10.3343 14.7066 10.2047 14.7003 10.1266 14.6194ZM9.1895 14.4796C9.10939 14.4772 9.00363 14.4605 8.95455 14.3948C8.89252 14.3118 8.87365 14.2349 8.89452 14.1532C9.35549 14.0586 9.94688 13.8141 10.6153 13.3997C10.7765 13.4721 10.9426 13.5354 11.1127 13.5891C10.3047 14.189 9.6051 14.494 9.1895 14.4796ZM8.14182 13.7991C8.08588 13.7078 8.07396 13.6276 8.10433 13.5466C8.12309 13.4966 8.15667 13.4492 8.19911 13.4045C8.65414 13.3306 9.2049 13.1696 9.79783 12.9163C9.95982 13.04 10.1331 13.1516 10.3151 13.2509C9.42132 13.7778 8.72916 13.9534 8.376 13.9094C8.29373 13.8991 8.1863 13.8717 8.14182 13.7991ZM7.19254 13.0428C7.14845 12.9631 7.13746 12.8931 7.15502 12.8253C7.69392 12.7994 8.41312 12.6467 9.20927 12.3354C9.30782 12.4664 9.42429 12.5941 9.55801 12.7166C8.65309 13.0881 7.87127 13.2267 7.43149 13.1517C7.30799 13.1306 7.21867 13.0899 7.19254 13.0428ZM6.37089 12.3872C6.36435 12.3738 6.36065 12.3613 6.35575 12.3485C7.01618 12.3242 7.89343 12.1091 8.87736 11.6804C8.91536 11.8191 8.97309 11.9568 9.04958 12.092C8.0027 12.4956 7.09148 12.6211 6.60935 12.5119C6.48423 12.4836 6.39511 12.4369 6.37089 12.3872ZM4.23015 10.5321C4.21537 10.4235 4.23876 10.3594 4.26737 10.3187C4.70255 10.4277 5.2526 10.4988 5.90609 10.4988C6.57452 10.4988 7.35011 10.4247 8.2181 10.2419C8.34515 10.3769 8.45601 10.5085 8.54714 10.6351C6.50455 11.2328 5.01803 11.0908 4.46611 10.7846C4.32553 10.7066 4.24174 10.6169 4.23015 10.5321ZM3.33334 9.4421C3.33154 9.34005 3.35903 9.28237 3.38958 9.24655C3.94197 9.48481 4.71937 9.68084 5.78307 9.68082C6.10622 9.68082 6.45675 9.66198 6.83444 9.62148C7.16014 9.70979 7.49097 9.78935 7.82552 9.85765C7.87796 9.90545 7.92891 9.95302 7.97836 10.0004C5.67591 10.4486 4.0718 10.1067 3.5333 9.71473C3.40582 9.62189 3.33482 9.52509 3.33334 9.4421ZM2.21022 7.67714C2.21406 7.65249 2.22053 7.63016 2.227 7.60779C3.16067 8.22651 4.52024 8.89559 6.05346 9.38995C3.91118 9.4503 2.91516 8.70863 2.61723 8.42742C2.28008 8.10922 2.18728 7.82439 2.21022 7.67714ZM1.18246 6.14292C1.21317 6.02342 1.27425 5.94121 1.36929 5.89162C1.3938 5.87883 1.42037 5.86898 1.44788 5.86071C2.53979 6.82643 4.32163 7.96851 6.33664 8.68369C6.6943 8.93673 7.05093 9.20345 7.37777 9.47133C4.52802 8.79486 2.02553 7.36832 1.33915 6.49847C1.1703 6.2845 1.17336 6.17855 1.18246 6.14292ZM0.585254 4.23905C0.636154 4.08974 0.700882 4.00123 0.777584 3.97407C2.81754 6.15607 5.34742 7.71163 7.09089 8.6247C4.15903 7.74034 1.50267 5.8173 0.758638 4.70831C0.553495 4.40256 0.574043 4.27181 0.585254 4.23905ZM5.95202 11.334C6.69313 11.3339 7.62554 11.2091 8.70348 10.8851C8.77909 11.0298 8.82257 11.1655 8.82257 11.2875C8.82257 11.3252 8.82436 11.363 8.82739 11.4008C7.34291 12.0594 6.20814 12.1613 5.70692 12.0029C5.56363 11.9577 5.4705 11.8906 5.44461 11.814C5.39816 11.6766 5.43321 11.6011 5.46359 11.5563C5.53582 11.4498 5.68925 11.3787 5.84676 11.3329C5.88154 11.3334 5.91634 11.334 5.95202 11.334ZM9.93529 12.6656C9.40037 12.2464 9.10581 11.757 9.10581 11.2875C9.10581 10.6215 8.21079 9.74138 7.19812 8.95844C7.55277 9.05824 7.91226 9.14249 8.27444 9.20912C8.81409 9.4589 9.14301 9.58713 9.15698 9.59247L11.63 10.4403C11.8669 10.5215 12.0671 10.7064 12.1792 10.9477L13.0651 12.8548C12.8875 13.0641 12.7162 13.2897 12.5514 13.5271C11.6086 13.5298 10.6495 13.2253 9.93529 12.6656ZM9.35602 20.6394C9.47678 20.6747 9.59115 20.7362 9.69146 20.8225L1.44455 29.0694L1.81796 28.1775L9.35602 20.6394ZM1.54146 29.1659L9.78824 20.9191C9.87305 21.0177 9.93492 21.1318 9.9706 21.2553L2.43315 28.7927L1.54146 29.1659ZM31.6572 1.98111C31.6743 1.98426 31.688 2.01869 31.6931 2.03333C31.7924 2.31739 31.5731 3.15512 31.2458 3.52978C27.8249 7.34439 22.7967 9.30696 22.7512 9.32456L20.2782 10.1724C19.9687 10.2784 19.7084 10.5176 19.564 10.8284L18.7299 12.6238C18.6314 12.5177 18.5312 12.4167 18.4291 12.3218C18.365 12.2623 18.2934 12.2162 18.2179 12.1822L19.2162 10.0333C19.3536 9.73743 19.5997 9.51212 19.8914 9.41507L22.5106 8.54286C22.5604 8.52312 27.5305 6.5212 31.0015 2.52534C31.4703 1.96561 31.6395 1.97797 31.6572 1.98111ZM31.4147 4.23905C31.4259 4.2718 31.4465 4.40256 31.2413 4.70827C30.4974 5.81725 27.8413 7.74017 24.9095 8.62459C26.6518 7.71199 29.1816 6.15645 31.2223 3.97406C31.2991 4.00121 31.3638 4.08971 31.4147 4.23905ZM30.6302 5.89134C30.7255 5.94093 30.7868 6.02324 30.8175 6.14293C30.8267 6.17855 30.8297 6.28451 30.6609 6.49847C29.9744 7.36843 27.4704 8.79663 24.6206 9.47272C24.9479 9.20436 25.3051 8.93717 25.6634 8.68369C27.6784 7.96848 29.4603 6.8264 30.5522 5.86067C30.5794 5.8689 30.6058 5.87865 30.6302 5.89134ZM29.7897 7.67714C29.8127 7.82439 29.7199 8.10926 29.3827 8.42742C29.0848 8.70864 28.0887 9.45023 25.9463 9.38986C27.4796 8.89551 28.8392 8.22647 29.7729 7.60779C29.7794 7.63015 29.7859 7.65248 29.7897 7.67714ZM28.6667 9.4421C28.6652 9.52508 28.5942 9.62188 28.4667 9.71472C27.9281 10.1067 26.3239 10.4486 24.0216 10.0004C24.0711 9.95298 24.1222 9.90534 24.1747 9.85748C24.509 9.78921 24.8396 9.70969 25.1651 9.62145C25.5429 9.66198 25.8936 9.68082 26.2169 9.68082C27.2805 9.6808 28.0579 9.48474 28.6104 9.24649C28.6409 9.28232 28.6685 9.34 28.6667 9.4421ZM27.7698 10.5321C27.7582 10.6169 27.6745 10.7066 27.5339 10.7845C26.9821 11.0909 25.4956 11.2328 23.4528 10.6351C23.544 10.5085 23.6548 10.3769 23.7819 10.2419C24.6499 10.4247 25.4254 10.4988 26.0939 10.4988C26.7473 10.4987 27.2974 10.4277 27.7326 10.3186C27.7612 10.3594 27.7846 10.4234 27.7698 10.5321ZM25.3906 12.5119C24.9087 12.6211 23.9974 12.4956 22.9504 12.092C23.0269 11.9568 23.0846 11.8191 23.1226 11.6805C24.1066 12.1092 24.9838 12.3243 25.6442 12.3485C25.6393 12.3613 25.6356 12.3738 25.6291 12.3872C25.6049 12.4369 25.5158 12.4836 25.3906 12.5119ZM26.5364 11.5563C26.5667 11.6011 26.6018 11.6765 26.5553 11.814C26.5295 11.8906 26.4363 11.9577 26.293 12.0029C25.7919 12.1613 24.6571 12.0594 23.1726 11.4008C23.1756 11.363 23.1774 11.3253 23.1774 11.2875C23.1774 11.1655 23.2209 11.0298 23.2965 10.8851C24.3745 11.2092 25.3068 11.334 26.0479 11.334C26.0837 11.334 26.1185 11.3335 26.1533 11.3329C26.3108 11.3788 26.4641 11.4498 26.5364 11.5563ZM16 4.61943C18.4389 4.61943 20.4525 6.4725 20.7084 8.84455L20.3374 8.96806C20.1404 6.74751 18.2709 5.00029 16 5.00029C13.7291 5.00029 11.8595 6.74754 11.6626 8.9681L11.2916 8.84463C11.5474 6.47255 13.561 4.61943 16 4.61943Z" fill="white"/>
<path d="M16 11.5533C17.2135 11.5533 18.1973 10.5695 18.1973 9.35596C18.1973 8.14241 17.2135 7.15863 16 7.15863C14.7864 7.15863 13.8026 8.14241 13.8026 9.35596C13.8026 10.5695 14.7864 11.5533 16 11.5533Z" fill="white"/>
<path d="M19.1756 22.2109L19.4015 22.9778L19.2194 23.5659L18.9471 23.42L18.6449 21.8921C18.5236 21.8089 18.4066 21.7208 18.2939 21.6281L18.6433 23.3945L18.3835 24.0241L17.9691 23.7509L18.063 23.5319L17.5805 20.9107C17.4333 20.7298 17.2987 20.5394 17.1777 20.3407L17.7588 23.4979L17.4906 24.124L16.8586 23.6952L16.6454 19.7577L16.8616 19.7353C16.7723 19.532 16.6958 19.3228 16.6335 19.1087C16.432 19.1268 16.2276 19.1391 16.0265 19.1423C16.0174 19.1424 16.0088 19.1444 16 19.1454C15.9911 19.1444 15.9825 19.1424 15.9734 19.1423C14.7487 19.1228 13.3955 18.7705 13.382 18.7669C13.3026 18.746 13.2224 18.7619 13.1579 18.803C13.1 18.84 13.0546 18.8972 13.0357 18.9689C12.996 19.1202 13.0863 19.2752 13.2377 19.3151C13.2446 19.317 13.2711 19.3239 13.3137 19.3345L13.2936 19.5809L12.2924 22.9799L12.6057 23.9918L12.9489 23.808L12.5257 28.9973C12.4715 29.6621 12.9665 30.2447 13.631 30.2989C14.2955 30.353 14.8784 29.8584 14.9326 29.1936L15.3371 24.2335L16 24.8256L16.6628 24.2334L17.0674 29.1936C17.1215 29.8584 17.7044 30.353 18.369 30.2989C19.0335 30.2447 19.5285 29.6621 19.4743 28.9973L19.0511 23.808L19.3942 23.9918L19.7076 22.9799L19.53 22.377C19.4091 22.3257 19.2908 22.2707 19.1756 22.2109ZM16.5772 23.917L16 24.4328L15.4227 23.917L15.6427 19.8557H16.3573L16.5772 23.917ZM13.3566 23.3945L14.1031 19.6206L14.6453 19.6841L13.937 23.5319L14.0309 23.7509L13.6165 24.0241L13.3566 23.3945ZM14.2412 23.4978L14.9375 19.7144L15.3546 19.7577L15.1413 23.6952L14.5094 24.124L14.2412 23.4978ZM13.6028 19.568L13.8063 19.6109L13.0529 23.42L12.7806 23.5659L12.5984 22.9778L13.6028 19.568Z" fill="white"/>
<path d="M22.7636 13.1636C20.2613 12.4769 17.676 13.9488 16.9894 16.4511C16.3027 18.9534 17.7746 21.5387 20.2769 22.2253C22.7793 22.912 25.3645 21.4401 26.0511 18.9378C26.7378 16.4354 25.2659 13.8502 22.7636 13.1636ZM25.1094 18.6794C24.5663 20.6584 22.5144 21.8267 20.5354 21.2836C18.5563 20.7405 17.3881 18.6886 17.9311 16.7096C18.4742 14.7305 20.5261 13.5622 22.5052 14.1053C24.4842 14.6484 25.6525 16.7003 25.1094 18.6794Z" fill="white"/>
<path d="M22.3889 14.5292C20.6435 14.0501 18.8339 15.0805 18.355 16.8259C18.1233 17.6701 18.2349 18.5551 18.6691 19.3178C19.1034 20.0805 19.8075 20.6282 20.6517 20.8598C20.9413 20.9393 21.2326 20.9773 21.5194 20.9772C22.9609 20.9771 24.2862 20.0188 24.6856 18.5631C25.1646 16.8177 24.1343 15.0081 22.3889 14.5292ZM24.4523 17.1166L22.2308 16.507L22.6627 14.9328C23.6038 15.3214 24.2613 16.1564 24.4523 17.1166ZM21.5212 14.7048C21.6623 14.7048 21.8047 14.7158 21.9473 14.7365L21.5154 16.3107L19.2958 15.7016C19.8573 15.0769 20.6659 14.7048 21.5212 14.7048ZM18.9237 19.1728C18.5282 18.4781 18.4266 17.6722 18.6375 16.9034C18.6911 16.708 18.7651 16.5237 18.853 16.3493L21.319 17.0261L20.3777 20.4563C19.7658 20.2042 19.2572 19.7586 18.9237 19.1728ZM22.9987 20.2911C22.4129 20.6245 21.7481 20.7482 21.0931 20.6527L22.0344 17.2224L24.5027 17.8997C24.4893 18.0943 24.4567 18.2904 24.4031 18.4856C24.1922 19.2543 23.6934 19.8955 22.9987 20.2911Z" fill="white"/>
</g>
<defs>
<clipPath id="clip0_15_13">
<rect width="32" height="32" fill="white"/>
</clipPath>
</defs>
</svg>
