<svg width="15" height="23" viewBox="0 0 15 23" fill="none" xmlns="http://www.w3.org/2000/svg">
<path d="M14.5866 10.1714L4.82848 0.413525C4.27714 -0.137813 3.37997 -0.13787 2.82852 0.413525L0.414222 2.82776C0.147087 3.0949 0 3.45003 0 3.82774C0 4.20546 0.147087 4.56065 0.414222 4.82772L6.75791 11.1714L0.414053 17.5166C-0.13723 18.068 -0.137229 18.9652 0.414109 19.5165L2.8284 21.9308C3.09554 22.1979 3.45067 22.345 3.82844 22.345C4.20622 22.345 4.56134 22.1978 4.82842 21.9307L14.5864 12.1713C15.1378 11.62 15.1378 10.7228 14.5866 10.1714ZM13.989 11.5739L4.23095 21.3333C4.12346 21.4408 3.98049 21.5 3.82844 21.5C3.6764 21.5 3.53348 21.4408 3.42594 21.3333L1.01159 18.919C0.789687 18.6971 0.789687 18.336 1.01159 18.114L7.65418 11.4701C7.65446 11.4699 7.65474 11.4695 7.65502 11.4692C7.65536 11.4689 7.65576 11.4686 7.65609 11.4682C8.06485 11.0542 8.49006 10.6281 8.91983 10.2018C9.08551 10.0375 9.08658 9.76994 8.92225 9.60432C8.75793 9.43864 8.4904 9.43757 8.32477 9.6019C7.99674 9.92728 7.67147 10.2525 7.35398 10.5725L1.0117 4.23025C0.904157 4.12271 0.845006 3.97979 0.845006 3.82774C0.845006 3.6757 0.904213 3.53278 1.0117 3.42524L3.42599 1.01094C3.53697 0.899967 3.68271 0.844478 3.8285 0.844478C3.97423 0.844478 4.12003 0.899967 4.231 1.01094L10.5729 7.35288C10.2446 7.67855 9.92989 7.99436 9.5853 8.34396C9.42148 8.51015 9.4234 8.77762 9.58958 8.94144C9.67188 9.02262 9.77903 9.06306 9.88618 9.06306C9.99535 9.06306 10.1044 9.02104 10.1871 8.93716C10.5302 8.58907 10.8435 8.27467 11.1705 7.95042L13.989 10.7689C14.2109 10.9908 14.2109 11.3519 13.989 11.5739Z" fill="white"/>
</svg>
