<svg width="30" height="30" viewBox="0 0 30 30" fill="none" xmlns="http://www.w3.org/2000/svg">
<g clip-path="url(#clip0_38_192)">
<path d="M15 29.3555C22.9283 29.3555 29.3555 22.9283 29.3555 15C29.3555 7.07169 22.9283 0.644531 15 0.644531C7.07169 0.644531 0.644531 7.07169 0.644531 15C0.644531 22.9283 7.07169 29.3555 15 29.3555Z" fill="#91E0E8"/>
<path d="M9.11479 23.9502C9.11479 24.0696 9.01717 24.1672 8.89781 24.1672H0.217031C0.0976172 24.1672 0 24.0696 0 23.9502V18.1342C0 18.0148 0.0976172 17.9171 0.217031 17.9171H8.89775C9.01711 17.9171 9.11473 18.0148 9.11473 18.1342V23.9502H9.11479Z" fill="#52BBEF"/>
<path d="M7.03301 21.3153C6.95607 21.2241 6.83021 21.2241 6.75328 21.3153L5.62506 22.654C5.54812 22.7452 5.42232 22.7452 5.34533 22.654L3.21568 20.1274C3.13875 20.0361 3.01295 20.0361 2.93596 20.1274L0 23.6105V23.9502C0 24.0696 0.0976172 24.1672 0.217031 24.1672H8.89775C9.01711 24.1672 9.11473 24.0696 9.11473 23.9502V23.7849L7.03301 21.3153Z" fill="#02AF8E"/>
<path d="M1.16268 23.9502V23.6105L3.65713 20.6512L3.21568 20.1274C3.13875 20.0361 3.01295 20.0361 2.93596 20.1274L0 23.6105V23.9502C0 24.0696 0.0976172 24.1672 0.217031 24.1672H1.37971C1.26029 24.1672 1.16268 24.0696 1.16268 23.9502Z" fill="#0F9390"/>
<path d="M1.22336 19.7063C1.58289 19.7063 1.87434 19.4148 1.87434 19.0553C1.87434 18.6957 1.58289 18.4043 1.22336 18.4043C0.86384 18.4043 0.572388 18.6957 0.572388 19.0553C0.572388 19.4148 0.86384 19.7063 1.22336 19.7063Z" fill="white"/>
<path d="M1.11004 19.0552C1.11004 18.7917 1.26702 18.5653 1.49231 18.4628C1.41034 18.4255 1.31946 18.4042 1.22348 18.4042C0.863892 18.4042 0.572388 18.6957 0.572388 19.0552C0.572388 19.4148 0.86395 19.7064 1.22348 19.7064C1.31946 19.7064 1.41028 19.6851 1.49231 19.6478C1.26702 19.5453 1.11004 19.3188 1.11004 19.0552Z" fill="#D9EAFC"/>
<path d="M27.9224 22.8054C27.9224 22.9666 27.7906 23.0984 27.6294 23.0984H21.2377C21.0765 23.0984 20.9447 22.9666 20.9447 22.8054V18.2308C20.9447 18.0696 21.0765 17.9378 21.2377 17.9378H27.6294C27.7906 17.9378 27.9224 18.0696 27.9224 18.2308V22.8054Z" fill="#FE3745"/>
<path d="M22.1074 22.8054V18.2308C22.1074 18.0696 22.2392 17.9378 22.4003 17.9378H21.2377C21.0765 17.9378 20.9447 18.0696 20.9447 18.2308V22.8054C20.9447 22.9666 21.0765 23.0984 21.2377 23.0984H22.4003C22.2392 23.0984 22.1074 22.9666 22.1074 22.8054Z" fill="#B7092B"/>
<path d="M23.2941 19.612C23.2941 19.2898 23.5224 19.1579 23.8015 19.3191L25.3709 20.2251C25.6499 20.3862 25.6499 20.6499 25.3709 20.811L23.8015 21.7171C23.5224 21.8783 23.2941 21.7464 23.2941 21.4242V19.612Z" fill="white"/>
<path d="M29.8835 13.1335H24.6419C24.5778 13.1335 24.5254 13.1862 24.5254 13.2506V16.6138C24.5254 16.6782 24.5778 16.7309 24.6419 16.7309H29.8835C29.9476 16.7309 30 16.6782 30 16.6138V13.2506C30 13.1862 29.9475 13.1335 29.8835 13.1335Z" fill="#FFAF10"/>
<path d="M25.6881 16.6139V13.2506C25.6881 13.1862 25.7405 13.1336 25.8046 13.1336H24.6419C24.5778 13.1336 24.5254 13.1862 24.5254 13.2506V16.6139C24.5254 16.6783 24.5778 16.7309 24.6419 16.7309H25.8046C25.7405 16.7309 25.6881 16.6783 25.6881 16.6139Z" fill="#EF9614"/>
<path d="M29.8835 13.1335H24.6419C24.6064 13.1335 24.5749 13.15 24.5535 13.1754L27.1704 15.1979C27.2212 15.2372 27.3043 15.2372 27.355 15.1979L29.9719 13.1754C29.9505 13.1501 29.919 13.1335 29.8835 13.1335Z" fill="#FFD00D"/>
<path d="M7.56038 1.53259H2.31876C2.25465 1.53259 2.20227 1.58521 2.20227 1.6496V5.01289C2.20227 5.07728 2.25471 5.1299 2.31876 5.1299H7.56038C7.62448 5.1299 7.67686 5.07728 7.67686 5.01289V1.6496C7.67692 1.58527 7.62448 1.53259 7.56038 1.53259Z" fill="#FFAF10"/>
<path d="M3.36495 5.01295V1.64967C3.36495 1.58527 3.41739 1.53265 3.48143 1.53265H2.31876C2.25465 1.53265 2.20227 1.58527 2.20227 1.64967V5.01295C2.20227 5.07734 2.25471 5.12996 2.31876 5.12996H3.48143C3.41733 5.12996 3.36495 5.07728 3.36495 5.01295Z" fill="#EF9614"/>
<path d="M7.56039 1.53259H2.31876C2.28332 1.53259 2.25173 1.54906 2.23035 1.57443L4.84726 3.59697C4.89806 3.63623 4.98115 3.63623 5.03189 3.59697L7.6488 1.57443C7.62742 1.54912 7.59589 1.53259 7.56039 1.53259Z" fill="#FFD00D"/>
<path d="M14.9723 2.54883C10.456 2.54883 6.78174 6.22312 6.78174 10.7395C6.78174 13.5106 8.16672 16.0729 10.4864 17.5934C10.5901 17.6614 10.6704 17.7599 10.7161 17.8752L11.617 20.1484H18.3276L19.2285 17.8752C19.2743 17.7599 19.3545 17.6614 19.4583 17.5934C21.7779 16.0729 23.1629 13.5106 23.1629 10.7395C23.1629 6.22312 19.4886 2.54883 14.9723 2.54883Z" fill="#FFD00D"/>
<path d="M11.6491 17.5934C9.32946 16.0729 7.94454 13.5106 7.94454 10.7395C7.94454 6.41859 11.3077 2.86893 15.5538 2.56969C15.3617 2.55615 15.1679 2.54883 14.9724 2.54883C10.4561 2.54883 6.78186 6.22312 6.78186 10.7395C6.78186 13.5106 8.16684 16.0729 10.4865 17.5934C10.5902 17.6614 10.6705 17.7599 10.7163 17.8752L11.6171 20.1484H12.7798L11.8789 17.8752C11.8331 17.7599 11.7528 17.6614 11.6491 17.5934Z" fill="#FFAF10"/>
<path d="M15.4117 20.1484V17.1346C15.2665 17.1445 15.1201 17.15 14.9723 17.15C14.8245 17.15 14.6781 17.1445 14.5328 17.1346V20.1484H15.4117Z" fill="#1A2B63"/>
<path d="M14.9724 17.2086C11.4053 17.2086 8.5033 14.3065 8.5033 10.7395C8.5033 7.17247 11.4053 4.27032 14.9724 4.27032C18.5394 4.27032 21.4414 7.17247 21.4414 10.7395C21.4415 14.3065 18.5394 17.2086 14.9724 17.2086Z" fill="#B7092B"/>
<path d="M14.9724 15.6118C12.2857 15.6118 10.1001 13.426 10.1001 10.7395C10.1001 8.05285 12.2858 5.86713 14.9724 5.86713C17.659 5.86713 19.8447 8.05291 19.8447 10.7395C19.8448 13.4261 17.659 15.6118 14.9724 15.6118Z" fill="white"/>
<path d="M10.9698 10.7395C10.9698 8.19951 12.9237 6.10835 15.4072 5.88752C15.2639 5.87474 15.1191 5.86707 14.9724 5.86707C12.2857 5.86707 10.1001 8.05285 10.1001 10.7394C10.1001 13.426 12.2858 15.6117 14.9724 15.6117C15.1191 15.6117 15.2639 15.6041 15.4072 15.5913C12.9237 15.3706 10.9698 13.2794 10.9698 10.7395Z" fill="#D9EAFC"/>
<path d="M14.9724 14.0153C16.7815 14.0153 18.248 12.5488 18.248 10.7397C18.248 8.9306 16.7815 7.46405 14.9724 7.46405C13.1633 7.46405 11.6968 8.9306 11.6968 10.7397C11.6968 12.5488 13.1633 14.0153 14.9724 14.0153Z" fill="#B7092B"/>
<path d="M14.9723 12.2083C14.1623 12.2083 13.5034 11.5494 13.5034 10.7395C13.5034 9.92946 14.1623 9.27057 14.9723 9.27057C15.7822 9.27057 16.4412 9.92946 16.4412 10.7395C16.4412 11.5494 15.7823 12.2083 14.9723 12.2083Z" fill="white"/>
<path d="M14.4317 10.7395C14.4317 10.0916 14.8533 9.54086 15.4364 9.34615C15.2905 9.2974 15.1345 9.27057 14.9723 9.27057C14.1623 9.27057 13.5034 9.92946 13.5034 10.7395C13.5034 11.5494 14.1623 12.2083 14.9723 12.2083C15.1345 12.2083 15.2905 12.1815 15.4364 12.1327C14.8533 11.938 14.4317 11.3873 14.4317 10.7395Z" fill="#D9EAFC"/>
<path d="M12.7717 25.6672V26.8652C12.7717 27.1875 13.0354 27.4512 13.3577 27.4512H16.5872C16.9094 27.4512 17.1731 27.1875 17.1731 26.8652V25.6672H12.7717Z" fill="#293D7C"/>
<path d="M13.9344 26.8652V25.6672H12.7717V26.8652C12.7717 27.1875 13.0354 27.4512 13.3577 27.4512H14.5203C14.1981 27.4512 13.9344 27.1875 13.9344 26.8652Z" fill="#1A2B63"/>
<path d="M19.2857 25.4328C19.2857 25.594 19.1539 25.7258 18.9927 25.7258H10.952C10.7909 25.7258 10.6591 25.594 10.6591 25.4328V20.3827C10.6591 20.2216 10.7909 20.0897 10.952 20.0897H18.9927C19.1539 20.0897 19.2857 20.2216 19.2857 20.3827V25.4328Z" fill="#445EA0"/>
<path d="M11.8217 25.4328V20.3827C11.8217 20.2216 11.9536 20.0897 12.1147 20.0897H10.952C10.7909 20.0897 10.6591 20.2216 10.6591 20.3827V25.4328C10.6591 25.594 10.7909 25.7258 10.952 25.7258H12.1147C11.9536 25.7258 11.8217 25.594 11.8217 25.4328Z" fill="#293D7C"/>
<path d="M19.4004 22.4079H10.5443C10.3016 22.4079 10.1049 22.2112 10.1049 21.9684C10.1049 21.7257 10.3016 21.529 10.5443 21.529H19.4004C19.6432 21.529 19.8399 21.7257 19.8399 21.9684C19.8399 22.2111 19.6431 22.4079 19.4004 22.4079Z" fill="#1A2B63"/>
<path d="M19.4004 24.2865H10.5443C10.3016 24.2865 10.1049 24.0898 10.1049 23.847C10.1049 23.6043 10.3016 23.4076 10.5443 23.4076H19.4004C19.6432 23.4076 19.8399 23.6043 19.8399 23.847C19.8399 24.0898 19.6431 24.2865 19.4004 24.2865Z" fill="#1A2B63"/>
<path d="M14.9723 10.3766H7.52185L7.81019 10.6873C7.87593 10.7582 7.87593 10.8741 7.81019 10.9449L7.52191 11.2556H14.9723C15.2151 11.2556 15.4118 11.0589 15.4118 10.8161C15.4118 10.5733 15.2151 10.3766 14.9723 10.3766Z" fill="#1A2B63"/>
<path d="M3.94071 12.3328C3.84403 12.3328 3.82036 12.2764 3.88821 12.2075L5.13333 10.9414C5.20112 10.8725 5.20112 10.7597 5.13333 10.6908L3.88821 9.42489C3.82042 9.35593 3.84403 9.29956 3.94071 9.29956H6.40482C6.5015 9.29956 6.63439 9.35751 6.70019 9.42835L7.86878 10.6873C7.93452 10.7581 7.93452 10.8741 7.86878 10.9449L6.70019 12.2039C6.63439 12.2748 6.5015 12.3328 6.40482 12.3328L3.94071 12.3328Z" fill="#FE3745"/>
<path d="M4.93364 12.2075L6.17876 10.9414C6.24655 10.8725 6.24655 10.7597 6.17876 10.6908L4.93364 9.42489C4.86585 9.35593 4.88946 9.29956 4.98614 9.29956H3.94071C3.84403 9.29956 3.82036 9.35593 3.88821 9.42489L5.13333 10.6908C5.20112 10.7598 5.20112 10.8726 5.13333 10.9414L3.88821 12.2075C3.82042 12.2764 3.84403 12.3328 3.94071 12.3328H4.9862C4.88946 12.3328 4.86585 12.2764 4.93364 12.2075Z" fill="#B7092B"/>
</g>
<defs>
<clipPath id="clip0_38_192">
<rect width="30" height="30" fill="white"/>
</clipPath>
</defs>
</svg>
