<svg width="86" height="86" viewBox="0 0 86 86" fill="none" xmlns="http://www.w3.org/2000/svg">
<circle cx="43" cy="43" r="32.5" stroke="white"/>
<path d="M58.6562 32.3105C58.4815 32.3105 58.3071 32.3168 58.1336 32.3292C57.6103 30.6606 56.6269 29.1552 55.2857 27.9973C53.4829 26.4407 51.1485 25.6194 48.7603 25.7077C46.4196 21.6034 42.0438 19 37.3594 19C31.475 19 26.268 23.0443 24.7049 28.7179C21.3182 30.2234 19.0918 33.6053 19.0918 37.3594C19.0918 41.0197 21.1825 44.2006 24.2324 45.7713V42.3164C24.2324 40.0387 26.0855 38.1855 28.3633 38.1855H56.6367C58.9146 38.1855 60.7676 40.0387 60.7676 42.3164V46.4995C63.7396 45.5932 65.9082 42.8271 65.9082 39.5625C65.9082 35.5637 62.6549 32.3105 58.6562 32.3105Z" fill="white"/>
<path d="M56.6367 40.9395H28.3633C27.6028 40.9395 26.9863 41.556 26.9863 42.3164V52.0417H58.0137V42.3164C58.0137 41.556 57.3971 40.9395 56.6367 40.9395ZM38.7928 48.0078H31.4844C30.7239 48.0078 30.1074 47.3913 30.1074 46.6309C30.1074 45.8704 30.7239 45.2539 31.4844 45.2539H38.7928C39.5531 45.2539 40.1697 45.8704 40.1697 46.6309C40.1697 47.3913 39.5531 48.0078 38.7928 48.0078ZM47.6406 47.9946C46.8802 47.9946 46.2637 47.3781 46.2637 46.6176C46.2637 45.8572 46.8802 45.2407 47.6406 45.2407C48.401 45.2407 49.0176 45.8572 49.0176 46.6176C49.0176 47.3781 48.401 47.9946 47.6406 47.9946ZM53.5156 47.9946C52.7552 47.9946 52.1387 47.3781 52.1387 46.6176C52.1387 45.8572 52.7552 45.2407 53.5156 45.2407C54.276 45.2407 54.8926 45.8572 54.8926 46.6176C54.8926 47.3781 54.276 47.9946 53.5156 47.9946Z" fill="white"/>
<path d="M26.9863 64.623C26.9863 65.3835 27.6028 66 28.3633 66H56.6367C57.3971 66 58.0137 65.3835 58.0137 64.623V54.7956H26.9863V64.623ZM53.5156 58.6562C54.276 58.6562 54.8926 59.2728 54.8926 60.0332C54.8926 60.7936 54.276 61.4102 53.5156 61.4102C52.7552 61.4102 52.1387 60.7936 52.1387 60.0332C52.1387 59.2728 52.7552 58.6562 53.5156 58.6562ZM47.6406 58.6562C48.401 58.6562 49.0176 59.2728 49.0176 60.0332C49.0176 60.7936 48.401 61.4102 47.6406 61.4102C46.8802 61.4102 46.2637 60.7936 46.2637 60.0332C46.2637 59.2728 46.8802 58.6562 47.6406 58.6562ZM31.4844 58.6562H38.7928C39.5531 58.6562 40.1697 59.2728 40.1697 60.0332C40.1697 60.7936 39.5531 61.4102 38.7928 61.4102H31.4844C30.7239 61.4102 30.1074 60.7936 30.1074 60.0332C30.1074 59.2728 30.7239 58.6562 31.4844 58.6562Z" fill="white"/>
</svg>
