<svg width="128" height="100" viewBox="0 0 128 100" fill="none" xmlns="http://www.w3.org/2000/svg">
<path d="M14 44V96L47 70.0001L14 44Z" fill="currentColor"/>
<path d="M101 31V47L110 39.3156L101 31Z" fill="currentColor"/>
<path d="M65.3564 0.761771C64.2836 -0.253924 62.7167 -0.253924 61.6439 0.761771L54 8H73L65.3564 0.761771Z" fill="currentColor"/>
<path d="M26 31L16 39.3156L26 47V31Z" fill="currentColor"/>
<path d="M52.2561 72L17 100H109L73.7441 72H52.2561Z" fill="currentColor"/>
<path d="M80 70.0002L113 96V44L80 70.0002Z" fill="currentColor"/>
<path d="M62.329 36C59.7095 36 57 38.175 57 41.8144C57 45.5144 59.643 48 62.1116 48C64.711 48 66.8427 45.4028 66.996 42.1374L67 41.444C66.884 38.2224 64.9961 36 62.329 36Z" fill="currentColor"/>
<path d="M73.6279 67L94 50.9412V15.9455C94 14.3188 92.6988 13 91.0938 13H34.9062C33.3012 13 32 14.3188 32 15.9455V50.9414L52.3721 67H73.6279ZM42.5124 46.9529C41.1246 41.6048 41.8224 35.967 44.4779 31.0777C47.1321 26.1901 51.4573 22.5747 56.657 20.8971C62.1426 19.127 67.9673 19.6486 73.0574 22.3656C78.1481 25.0829 81.8673 29.6534 83.5296 35.2354C83.5387 35.2656 83.5472 35.2963 83.5552 35.327C84.6599 39.5213 84.3329 43.4807 82.4945 48.165C81.2521 51.3311 78.2057 54.7145 73.3823 54.7145C71.6324 54.7145 69.9542 53.9872 68.6573 52.6662C68.3504 52.3536 68.0739 52.0131 67.8262 51.6524C66.1975 52.9951 64.2222 53.772 62.0719 53.772C59.2629 53.772 56.5318 52.39 54.579 49.9801C52.6962 47.6567 51.6594 44.5651 51.6594 41.2742C51.6594 37.9686 52.7625 34.9098 54.766 32.6617C56.7415 30.4447 59.4759 29.1732 62.2676 29.1732C63.803 29.1732 65.2622 29.544 66.5733 30.2429C66.8274 28.8776 68.0084 27.8461 69.4265 27.8461H69.4412C71.0463 27.8541 72.341 29.1794 72.3332 30.806L72.253 47.1701C72.2506 47.6726 72.4466 48.1736 72.7775 48.5106C72.8921 48.6274 73.1231 48.8233 73.3823 48.8233C75.7274 48.8233 76.7589 46.8401 77.0933 45.9878C78.4511 42.5284 78.7083 39.8046 77.9511 36.8914C76.7357 32.8529 74.0374 29.5464 70.3489 27.5776C66.6476 25.6019 62.4105 25.2231 58.4202 26.5102C50.5541 29.048 46.0359 37.3691 48.1339 45.4542C49.8761 52.1683 55.8643 56.9911 62.6961 57.1828C64.3005 57.2278 65.5654 58.5825 65.5208 60.2086C65.4773 61.807 64.185 63.0726 62.6173 63.0726C62.5901 63.0726 62.5629 63.0721 62.5354 63.0713C58.0316 62.945 53.5859 61.3238 50.0168 58.5055C46.3088 55.5781 43.7141 51.5832 42.5124 46.9529Z" fill="currentColor"/>
</svg>