<svg width="86" height="86" viewBox="0 0 86 86" fill="none" xmlns="http://www.w3.org/2000/svg">
<circle cx="43" cy="43" r="32.5" stroke="white"/>
<g clip-path="url(#clip0_33_66)">
<path d="M58.5085 50.5226C58.2946 50.4339 58.0484 50.4829 57.8847 50.6466L51.629 56.9023C51.4653 57.0661 51.4163 57.3123 51.505 57.5262C51.5935 57.7401 51.8023 57.8795 52.0338 57.8795H58.2895C58.6057 57.8795 58.862 57.6233 58.862 57.3071V51.0514C58.8619 50.8199 58.7224 50.6112 58.5085 50.5226ZM53.4156 56.7347L57.7169 52.4334V56.7347H53.4156Z" fill="white"/>
<path d="M62.6467 41.3473C62.4328 41.2587 62.1866 41.3076 62.0229 41.4713L60.3085 43.1857V31.5291C60.3085 31.2129 60.0522 30.9566 59.736 30.9566H55.3378L56.9344 29.3601C56.9346 29.3598 56.9348 29.3595 56.935 29.3593L58.4734 27.8209C58.803 27.4913 58.9845 27.0529 58.9845 26.5867C58.9845 26.1205 58.803 25.6823 58.4734 25.3525L56.6945 23.5736C56.3649 23.244 55.9264 23.0625 55.4603 23.0625C54.9941 23.0625 54.5557 23.244 54.2261 23.5736L52.6869 25.1127L50.8271 26.9725L46.8431 30.9565H29.0746V25.2935C29.0746 24.9774 28.8183 24.7211 28.5021 24.7211C26.0197 24.7213 24 26.7408 24 29.2234V53.5364C24 53.5787 24.0049 53.6198 24.0136 53.6594C24.0926 54.7128 24.5484 55.6916 25.31 56.4345C26.1241 57.2286 27.1988 57.6659 28.3362 57.6659H45.8282L42.5339 60.9602C42.3702 61.124 42.3212 61.3701 42.4098 61.5841C42.4984 61.798 42.7072 61.9374 42.9387 61.9374H62.4277C62.7438 61.9374 63.0001 61.6812 63.0001 61.365V41.8762C63.0001 41.6447 62.8605 41.4359 62.6467 41.3473ZM55.0358 24.3832C55.2698 24.1491 55.651 24.1491 55.885 24.3832L57.664 26.1622C57.8982 26.3963 57.8982 26.7774 57.664 27.0115L56.5297 28.1459L53.9013 25.5176L55.0358 24.3832ZM53.0918 26.3271L55.7201 28.9554L54.6698 30.0057L52.0416 27.3775L53.0918 26.3271ZM61.8554 48.3083H60.7992C60.4831 48.3083 60.2268 48.5645 60.2268 48.8807C60.2268 49.1969 60.4831 49.4532 60.7992 49.4532H61.8554V51.1781H60.7992C60.4831 51.1781 60.2268 51.4344 60.2268 51.7506C60.2268 52.0668 60.4831 52.323 60.7992 52.323H61.8554V54.0479H60.7992C60.4831 54.0479 60.2268 54.3042 60.2268 54.6204C60.2268 54.9365 60.4831 55.1928 60.7992 55.1928H61.8554V56.9178H60.7992C60.4831 56.9178 60.2268 57.1741 60.2268 57.4902C60.2268 57.8064 60.4831 58.0626 60.7992 58.0626H61.8554V60.7928H44.3206L50.1026 55.0108C50.3262 54.7872 50.3262 54.4248 50.1026 54.2013C50.077 54.1756 50.0494 54.1533 50.0205 54.1335C49.7976 53.9809 49.491 54.0034 49.293 54.2013L46.9731 56.5211H28.3363C26.6002 56.5211 25.2026 55.1657 25.1476 53.4328C25.1509 53.324 25.1593 53.2161 25.1729 53.1095C25.173 53.1089 25.173 53.1083 25.1731 53.1077C25.1795 53.057 25.1872 53.0066 25.196 52.9565C25.197 52.9507 25.198 52.945 25.199 52.9393C25.207 52.8946 25.216 52.8501 25.2258 52.8058C25.2286 52.7934 25.2315 52.7811 25.2344 52.7688C25.2431 52.7314 25.2524 52.6941 25.2625 52.657C25.268 52.6369 25.2737 52.617 25.2795 52.597C25.2879 52.5679 25.2966 52.5389 25.3058 52.5102C25.315 52.4814 25.3249 52.453 25.3348 52.4246C25.3418 52.4047 25.3486 52.3849 25.3561 52.3651C25.37 52.3277 25.3848 52.2906 25.4 52.2538C25.4044 52.2432 25.4086 52.2324 25.4131 52.2219C25.4327 52.1761 25.4531 52.131 25.4745 52.0863C25.4755 52.0844 25.4763 52.0825 25.4772 52.0806C25.9249 51.1541 26.7861 50.4633 27.8195 50.2489C27.8224 50.2483 27.8253 50.2476 27.8282 50.247C27.8756 50.2373 27.9234 50.229 27.9715 50.2213C27.9795 50.2201 27.9875 50.2185 27.9957 50.2172C28.0392 50.2106 28.0831 50.2054 28.1271 50.2005C28.1394 50.1991 28.1517 50.1972 28.1641 50.196C28.2065 50.1917 28.2493 50.1889 28.2921 50.1862C28.3057 50.1854 28.3193 50.1839 28.3328 50.1833C28.3889 50.1804 28.4454 50.179 28.5021 50.179C28.8183 50.179 29.0746 49.9228 29.0746 49.6066V45.456C29.0746 45.1398 28.8183 44.8836 28.5021 44.8836C28.186 44.8836 27.9297 45.1398 27.9297 45.456V49.0702C26.9631 49.1924 26.0659 49.6236 25.3584 50.3144C25.284 50.3871 25.2134 50.4627 25.1447 50.5394V29.2234C25.1447 27.5674 26.3502 26.1873 27.9296 25.9148V31.5291V43.1664V43.1665C27.9296 43.4826 28.186 43.7389 28.5021 43.7389C28.8182 43.7389 29.0745 43.4826 29.0745 43.1665V43.1664V32.1015H45.6983L42.5338 35.266C42.3102 35.4896 42.3102 35.852 42.5338 36.0755C42.7574 36.299 43.1198 36.299 43.3433 36.0755L47.485 31.9338C47.4851 31.9337 47.4852 31.9335 47.4854 31.9335L51.2319 28.1869L53.86 30.8153L53.5517 31.1236C53.5515 31.1238 53.5512 31.1241 53.5509 31.1243L42.0087 42.6666L39.3805 40.0384L41.6556 37.7633C41.8792 37.5396 41.8792 37.1773 41.6556 36.9537C41.432 36.7302 41.0696 36.7302 40.8461 36.9537L38.1662 39.6336C38.1519 39.6479 38.1384 39.6631 38.1259 39.6786C38.1217 39.6838 38.118 39.6894 38.114 39.6948C38.1059 39.7055 38.098 39.7163 38.0906 39.7276C38.0864 39.7341 38.0826 39.7409 38.0786 39.7476C38.0723 39.7583 38.0662 39.7691 38.0607 39.7802C38.057 39.7873 38.0537 39.7946 38.0504 39.802C38.0453 39.8132 38.0406 39.8246 38.0362 39.8361C38.0347 39.8401 38.0327 39.8439 38.0313 39.8479L36.916 43.0072L36.1557 45.1612C36.1456 45.1899 36.1384 45.219 36.133 45.2483H34.2293C33.9132 45.2483 33.6569 45.5046 33.6569 45.8207C33.6569 46.1369 33.9132 46.3932 34.2293 46.3932H50.0818C50.398 46.3932 50.6542 46.1369 50.6542 45.8207C50.6542 45.5046 50.398 45.2483 50.0818 45.2483H38.7083L42.1993 44.016C42.2021 44.0149 42.2049 44.0135 42.2078 44.0124C42.2213 44.0074 42.2347 44.0018 42.2479 43.9957C42.2531 43.9933 42.2584 43.991 42.2635 43.9885C42.2772 43.9816 42.2907 43.9741 42.3039 43.966C42.3082 43.9634 42.3126 43.9611 42.3168 43.9584C42.3306 43.9496 42.344 43.9399 42.3572 43.9297C42.3604 43.9272 42.3639 43.925 42.3671 43.9224C42.383 43.9096 42.3986 43.8958 42.4134 43.881L54.1929 32.1016H59.1635V44.3307L50.9753 52.5189C50.7518 52.7426 50.7518 53.1049 50.9753 53.3285C50.9893 53.3424 51.0038 53.3555 51.0188 53.3678C51.1238 53.4533 51.252 53.4961 51.3801 53.4961C51.5082 53.4961 51.6365 53.4533 51.7414 53.3678C51.7564 53.3556 51.771 53.3424 51.7849 53.3285C51.7851 53.3282 51.7849 53.3285 51.7851 53.3283L61.8554 43.2579V48.3083ZM40.9618 43.2386L39.3221 43.8174L38.2296 42.725L38.8085 41.0853L40.9618 43.2386Z" fill="white"/>
</g>
<defs>
<clipPath id="clip0_33_66">
<rect width="39" height="39" fill="white" transform="translate(24 23)"/>
</clipPath>
</defs>
</svg>
