<svg width="360" height="504" viewBox="0 0 360 504" fill="none" xmlns="http://www.w3.org/2000/svg">
<rect x="0.25" y="0.25" width="359.5" height="503.5" stroke="white" stroke-width="0.5"/>
<path d="M356.604 500.703C357.001 500.305 357.245 499.756 357.244 499.15L357.201 480.098C357.198 478.886 356.214 477.906 355.002 477.909C353.79 477.911 352.81 478.896 352.813 480.108L352.851 496.966L335.993 497.003C334.781 497.006 333.801 497.991 333.804 499.202C333.806 500.414 334.791 501.394 336.003 501.391L355.055 501.349C355.661 501.348 356.208 501.101 356.604 500.703Z" fill="white"/>
<path d="M3.29366 500.552C3.69072 500.949 4.23934 501.194 4.84464 501.194L23.897 501.194C25.1089 501.194 26.0914 500.212 26.0912 499C26.0912 497.788 25.1089 496.806 23.8971 496.806L7.03896 496.806L7.0391 479.948C7.03886 478.737 6.05665 477.754 4.84522 477.754C3.6332 477.754 2.6507 478.736 2.651 479.949L2.65075 499.001C2.651 499.606 2.89674 500.155 3.29366 500.552Z" fill="white"/>
<path d="M356.691 4.24171C356.29 3.84815 355.739 3.60756 355.134 3.6127L336.084 3.77908C334.872 3.78965 333.898 4.78064 333.909 5.99225C333.919 7.20362 334.91 8.17726 336.122 8.16698L352.978 8.01935L353.125 24.8757C353.136 26.0873 354.127 27.0608 355.338 27.0502C356.55 27.0402 357.524 26.0492 357.513 24.8371L357.347 5.78664C357.341 5.1812 357.091 4.63512 356.691 4.24171Z" fill="white"/>
<path d="M3.4487 4.29716C3.0517 4.69416 2.80633 5.2427 2.80618 5.84791L2.80628 24.8974C2.80628 26.1092 3.78863 27.0916 5.00018 27.0913C6.21148 27.0913 7.19364 26.1092 7.19394 24.8976L7.19345 8.04191L24.0489 8.04205C25.2604 8.04181 26.2425 7.05975 26.2424 5.84849C26.243 4.63665 25.2606 3.6543 24.0485 3.65459L4.99915 3.65434C4.39375 3.65459 3.84555 3.9003 3.4487 4.29716Z" fill="white"/>
<g clip-path="url(#clip0_29_3)">
<path d="M335.041 472.079L345.19 461.93C345.764 461.357 345.764 460.423 345.19 459.85L342.679 457.339C342.401 457.061 342.032 456.908 341.639 456.908C341.246 456.908 340.877 457.061 340.599 457.339L334.001 463.937L327.401 457.338C326.827 456.765 325.894 456.765 325.321 457.338L322.81 459.85C322.532 460.127 322.379 460.497 322.379 460.89C322.379 461.283 322.532 461.652 322.81 461.93L332.961 472.079C333.534 472.653 334.467 472.653 335.041 472.079ZM333.582 471.458L323.431 461.308C323.319 461.197 323.258 461.048 323.258 460.89C323.258 460.732 323.319 460.583 323.431 460.471L325.942 457.96C326.173 457.729 326.549 457.729 326.78 457.96L333.69 464.869C333.69 464.869 333.691 464.87 333.691 464.87C333.691 464.87 333.692 464.871 333.692 464.871C334.123 465.296 334.566 465.738 335.009 466.185C335.18 466.358 335.458 466.359 335.631 466.188C335.803 466.017 335.804 465.739 335.633 465.566C335.295 465.225 334.957 464.887 334.624 464.557L341.22 457.96C341.332 457.848 341.481 457.787 341.639 457.787C341.797 457.787 341.946 457.848 342.058 457.96L344.569 460.471C344.684 460.587 344.742 460.738 344.742 460.89C344.742 461.041 344.684 461.193 344.569 461.309L337.972 467.905C337.634 467.563 337.305 467.236 336.942 466.878C336.769 466.707 336.491 466.709 336.32 466.882C336.236 466.968 336.194 467.079 336.194 467.191C336.194 467.304 336.237 467.418 336.325 467.504C336.687 467.861 337.014 468.186 337.351 468.526L334.419 471.458C334.189 471.689 333.813 471.689 333.582 471.458Z" fill="white"/>
<path d="M320.372 483.946C320.372 483.703 320.175 483.506 319.933 483.506L319.439 483.506C319.197 483.506 319 483.703 319 483.946C319 484.189 319.197 484.385 319.439 484.385L319.933 484.385C320.175 484.385 320.372 484.189 320.372 483.946Z" fill="white"/>
<path d="M320.372 481.352C320.372 481.109 320.175 480.912 319.933 480.912L319.439 480.912C319.197 480.912 319 481.109 319 481.352C319 481.595 319.197 481.791 319.439 481.791L319.933 481.791C320.175 481.791 320.372 481.595 320.372 481.352Z" fill="white"/>
<path d="M320.372 478.758C320.372 478.515 320.175 478.318 319.933 478.318L319.439 478.318C319.197 478.318 319 478.515 319 478.758C319 479.001 319.197 479.197 319.439 479.197L319.933 479.197C320.175 479.197 320.372 479 320.372 478.758Z" fill="white"/>
<path d="M349 461.242C349 461 348.803 460.803 348.561 460.803L348.067 460.803C347.825 460.803 347.628 461 347.628 461.242C347.628 461.485 347.825 461.682 348.067 461.682L348.561 461.682C348.803 461.682 349 461.485 349 461.242Z" fill="white"/>
<path d="M349 458.648C349 458.405 348.803 458.209 348.561 458.209L348.067 458.209C347.825 458.209 347.628 458.405 347.628 458.648C347.628 458.891 347.825 459.088 348.067 459.088L348.561 459.088C348.803 459.088 349 458.891 349 458.648Z" fill="white"/>
<path d="M349 456.054C349 455.811 348.803 455.615 348.561 455.615L348.067 455.615C347.825 455.615 347.628 455.811 347.628 456.054C347.628 456.297 347.825 456.494 348.067 456.494L348.561 456.494C348.803 456.494 349 456.297 349 456.054Z" fill="white"/>
<path d="M335.041 482.66L345.19 472.51C345.764 471.937 345.764 471.004 345.19 470.43L342.679 467.919C342.401 467.641 342.032 467.488 341.639 467.488C341.246 467.488 340.877 467.641 340.599 467.919L334.001 474.517L327.401 467.919C326.827 467.345 325.894 467.345 325.321 467.919L322.81 470.43C322.532 470.708 322.379 471.077 322.379 471.47C322.379 471.863 322.532 472.233 322.81 472.51L332.961 482.66C333.534 483.233 334.467 483.233 335.041 482.66ZM333.582 482.038L323.431 471.889C323.319 471.777 323.258 471.628 323.258 471.47C323.258 471.312 323.319 471.163 323.431 471.052L325.942 468.54C326.173 468.31 326.549 468.31 326.78 468.54L333.69 475.449C333.69 475.45 333.691 475.45 333.691 475.45C333.691 475.451 333.692 475.451 333.692 475.451C334.123 475.877 334.566 476.319 335.009 476.766C335.18 476.938 335.458 476.939 335.631 476.768C335.803 476.597 335.804 476.319 335.633 476.147C335.295 475.806 334.957 475.467 334.624 475.137L341.22 468.54C341.332 468.429 341.481 468.367 341.639 468.367C341.797 468.367 341.946 468.429 342.058 468.54L344.569 471.052C344.684 471.167 344.742 471.319 344.742 471.47C344.742 471.622 344.684 471.774 344.569 471.889L337.972 478.485C337.634 478.144 337.305 477.816 336.942 477.458C336.769 477.288 336.491 477.29 336.32 477.462C336.236 477.548 336.194 477.66 336.194 477.771C336.194 477.885 336.237 477.998 336.325 478.084C336.687 478.441 337.014 478.767 337.351 479.107L334.419 482.038C334.189 482.269 333.813 482.269 333.582 482.038Z" fill="white"/>
</g>
<g clip-path="url(#clip1_29_3)">
<path d="M27.0409 472.079L37.1902 461.93C37.7637 461.357 37.7638 460.423 37.1902 459.85L34.6791 457.339C34.4013 457.061 34.0319 456.908 33.639 456.908C33.2462 456.908 32.8767 457.061 32.5989 457.339L26.0008 463.937L19.401 457.338C18.8275 456.765 17.8943 456.765 17.3209 457.338L14.8098 459.85C14.5319 460.127 14.3789 460.497 14.3789 460.89C14.3789 461.283 14.532 461.652 14.8098 461.93L24.9607 472.079C25.5342 472.653 26.4673 472.653 27.0409 472.079ZM25.5822 471.458L15.4312 461.308C15.3194 461.197 15.2578 461.048 15.2578 460.89C15.2578 460.732 15.3194 460.583 15.4312 460.471L17.9424 457.96C18.1732 457.729 18.5487 457.729 18.7796 457.96L25.69 464.869C25.6903 464.869 25.6907 464.87 25.691 464.87C25.6914 464.87 25.6917 464.871 25.692 464.871C26.1227 465.296 26.5659 465.738 27.0093 466.185C27.1802 466.358 27.4585 466.359 27.6307 466.188C27.803 466.017 27.8042 465.739 27.6332 465.566C27.2948 465.225 26.9565 464.887 26.6237 464.557L33.2204 457.96C33.3322 457.848 33.4809 457.787 33.639 457.787C33.7972 457.787 33.9458 457.848 34.0577 457.96L36.5688 460.471C36.6843 460.587 36.742 460.738 36.742 460.89C36.742 461.041 36.6843 461.193 36.5688 461.309L29.9725 467.905C29.6337 467.563 29.3053 467.236 28.9416 466.878C28.7688 466.707 28.4906 466.709 28.3202 466.882C28.2358 466.968 28.1937 467.079 28.1937 467.191C28.1937 467.304 28.2374 467.418 28.3246 467.504C28.6867 467.861 29.0137 468.186 29.351 468.526L26.4194 471.458C26.1886 471.689 25.813 471.689 25.5822 471.458Z" fill="white"/>
<path d="M12.3721 483.946C12.3721 483.703 12.1753 483.506 11.9326 483.506L11.4395 483.506C11.1968 483.506 11 483.703 11 483.946C11 484.189 11.1968 484.385 11.4395 484.385L11.9326 484.385C12.1753 484.385 12.3721 484.189 12.3721 483.946Z" fill="white"/>
<path d="M12.3721 481.352C12.3721 481.109 12.1753 480.912 11.9326 480.912L11.4395 480.912C11.1968 480.912 11 481.109 11 481.352C11 481.595 11.1968 481.791 11.4395 481.791L11.9326 481.791C12.1753 481.791 12.3721 481.595 12.3721 481.352Z" fill="white"/>
<path d="M12.3721 478.758C12.3721 478.515 12.1753 478.318 11.9326 478.318L11.4395 478.318C11.1968 478.318 11 478.515 11 478.758C11 479.001 11.1968 479.197 11.4395 479.197L11.9326 479.197C12.1753 479.197 12.3721 479 12.3721 478.758Z" fill="white"/>
<path d="M41 461.242C41 461 40.8032 460.803 40.5605 460.803L40.0674 460.803C39.8247 460.803 39.6279 461 39.6279 461.242C39.6279 461.485 39.8247 461.682 40.0674 461.682L40.5605 461.682C40.8032 461.682 41 461.485 41 461.242Z" fill="white"/>
<path d="M41 458.648C41 458.405 40.8032 458.209 40.5605 458.209L40.0674 458.209C39.8247 458.209 39.6279 458.405 39.6279 458.648C39.6279 458.891 39.8247 459.088 40.0674 459.088L40.5605 459.088C40.8032 459.088 41 458.891 41 458.648Z" fill="white"/>
<path d="M41 456.054C41 455.811 40.8032 455.615 40.5605 455.615L40.0674 455.615C39.8247 455.615 39.6279 455.811 39.6279 456.054C39.6279 456.297 39.8247 456.494 40.0674 456.494L40.5605 456.494C40.8032 456.494 41 456.297 41 456.054Z" fill="white"/>
<path d="M27.0409 482.66L37.1902 472.51C37.7637 471.937 37.7638 471.004 37.1902 470.43L34.6791 467.919C34.4013 467.641 34.0319 467.488 33.639 467.488C33.2462 467.488 32.8767 467.641 32.5989 467.919L26.0008 474.517L19.401 467.919C18.8275 467.345 17.8943 467.345 17.3209 467.919L14.8098 470.43C14.5319 470.708 14.3789 471.077 14.3789 471.47C14.3789 471.863 14.532 472.233 14.8098 472.51L24.9607 482.66C25.5342 483.233 26.4673 483.233 27.0409 482.66ZM25.5822 482.038L15.4312 471.889C15.3194 471.777 15.2578 471.628 15.2578 471.47C15.2578 471.312 15.3194 471.163 15.4312 471.052L17.9424 468.54C18.1732 468.31 18.5487 468.31 18.7796 468.54L25.69 475.449C25.6903 475.45 25.6907 475.45 25.691 475.45C25.6914 475.451 25.6917 475.451 25.692 475.451C26.1227 475.877 26.5659 476.319 27.0093 476.766C27.1802 476.938 27.4585 476.939 27.6307 476.768C27.803 476.597 27.8042 476.319 27.6332 476.147C27.2948 475.806 26.9565 475.467 26.6237 475.137L33.2204 468.54C33.3322 468.429 33.4809 468.367 33.639 468.367C33.7972 468.367 33.9458 468.429 34.0577 468.54L36.5688 471.052C36.6843 471.167 36.742 471.319 36.742 471.47C36.742 471.622 36.6843 471.774 36.5688 471.889L29.9725 478.485C29.6337 478.144 29.3053 477.816 28.9416 477.458C28.7688 477.288 28.4906 477.29 28.3202 477.462C28.2358 477.548 28.1937 477.66 28.1937 477.771C28.1937 477.885 28.2374 477.998 28.3246 478.084C28.6867 478.441 29.0137 478.767 29.351 479.107L26.4194 482.038C26.1886 482.269 25.813 482.269 25.5822 482.038Z" fill="white"/>
</g>
<defs>
<clipPath id="clip0_29_3">
<rect width="30" height="30" fill="white" transform="translate(349 455) rotate(90)"/>
</clipPath>
<clipPath id="clip1_29_3">
<rect width="30" height="30" fill="white" transform="translate(41 455) rotate(90)"/>
</clipPath>
</defs>
</svg>
