<svg width="25" height="25" viewBox="0 0 25 25" fill="none" xmlns="http://www.w3.org/2000/svg">
<g clip-path="url(#clip0_0_98)">
<path d="M7.69462 12.9978C7.67879 12.9978 7.66296 12.9972 7.64693 12.9963L0.764073 12.5666C0.502194 12.5504 0.267209 12.4006 0.141705 12.1704C0.0163923 11.9402 0.0179182 11.6615 0.146092 11.4327C0.182141 11.3682 1.0496 9.83868 2.70156 8.50468C4.93392 6.70223 7.52906 6.11763 10.2062 6.81419C10.4284 6.87199 10.6127 7.02686 10.708 7.23572C10.8034 7.44457 10.7996 7.68528 10.6975 7.89089L8.37802 12.5736C8.2487 12.8346 7.98301 12.9978 7.69462 12.9978Z" fill="#FF5B5B"/>
<path d="M13.2433 25C13.1178 25 12.9923 24.9691 12.8784 24.907C12.6482 24.7815 12.4984 24.5467 12.482 24.2848L12.0525 17.4019C12.0334 17.0954 12.1999 16.8072 12.4752 16.6708L17.1579 14.3511C17.3637 14.2493 17.6042 14.2454 17.8131 14.3408C18.0221 14.436 18.1768 14.6204 18.2346 14.8426C18.9314 17.5198 18.3468 20.1149 16.5441 22.3473C15.2103 23.9993 13.6806 24.8665 13.6162 24.9028C13.5004 24.9676 13.3718 25 13.2433 25Z" fill="#FF193D"/>
<path d="M23.8252 6.15523L18.8936 1.22359C18.696 1.02599 18.4061 0.952367 18.1381 1.03152C14.8367 2.00808 12.1265 3.53969 10.0824 5.5836C9.65612 6.01009 9.24661 6.47224 8.86552 6.95708C7.75735 8.36604 6.83171 10.0319 6.11455 11.9086C5.65774 13.1047 5.28581 14.386 5.00905 15.717C4.52573 18.0418 4.49979 19.7081 4.49883 19.7779C4.49636 19.9833 4.57685 20.1813 4.72219 20.3267C4.86524 20.4697 5.0594 20.55 5.26158 20.55H5.27093C5.34093 20.5492 7.00719 20.5233 9.33187 20.04C10.6628 19.7632 11.9442 19.3913 13.1405 18.9343C15.0169 18.2171 16.6828 17.2917 18.0914 16.1837C18.5766 15.8024 19.0387 15.3929 19.4652 14.9664C21.5093 12.9223 23.0409 10.2122 24.0173 6.91074C24.0967 6.64275 24.0228 6.35284 23.8252 6.15523Z" fill="#E1F1FA"/>
<path d="M9.85297 18.8907L6.15806 15.1958C5.8853 14.9231 5.45176 14.8969 5.14811 15.135C4.91218 15.32 4.68768 15.5187 4.48092 15.7255C1.91001 18.2964 1.83047 22.2799 1.82837 22.4481C1.8257 22.6538 1.90619 22.8517 2.05172 22.9971C2.19477 23.1403 2.38875 23.2206 2.59093 23.2206C2.59417 23.2206 2.59742 23.2206 2.60066 23.2204C2.76889 23.2183 6.75258 23.1388 9.3233 20.5679C9.53006 20.3611 9.7288 20.1366 9.91382 19.9007C10.1519 19.597 10.1257 19.1635 9.85297 18.8907Z" fill="#FFF261"/>
<path d="M6.17353 11.7559L3.90665 14.023C3.7636 14.1659 3.68311 14.3598 3.68311 14.5622C3.68311 14.7644 3.7636 14.9584 3.90665 15.1014L9.94741 21.1422C10.0903 21.2852 10.2843 21.3655 10.4866 21.3655C10.689 21.3655 10.8828 21.2852 11.0258 21.1422L13.2927 18.8753L6.17353 11.7559Z" fill="#1B3B6B"/>
<path d="M16.0694 11.3062C15.448 11.3062 14.8636 11.0641 14.4241 10.6247C13.517 9.71756 13.517 8.24165 14.4241 7.33433C14.8636 6.89487 15.448 6.65283 16.0694 6.65283C16.6908 6.65283 17.2752 6.89487 17.7147 7.33433C18.1541 7.77378 18.3962 8.358 18.3962 8.97961C18.3962 9.60102 18.1541 10.1852 17.7147 10.6247C17.2752 11.0641 16.6908 11.3062 16.0694 11.3062Z" fill="#06CCAB"/>
<path d="M16.0692 12.0521C15.2485 12.0521 14.477 11.7325 13.8967 11.1523C12.6987 9.95425 12.6987 8.00494 13.8967 6.80693C14.477 6.22672 15.2487 5.90704 16.0692 5.90704C16.8899 5.90704 17.6615 6.22672 18.2419 6.80693C18.8223 7.38734 19.1418 8.15886 19.1418 8.97959C19.1418 9.80032 18.8223 10.5718 18.2419 11.1523C17.6615 11.7325 16.8899 12.0521 16.0692 12.0521ZM16.0692 7.43235C15.6561 7.43235 15.2674 7.59333 14.9752 7.88554C14.372 8.48883 14.372 9.47035 14.9752 10.0736C15.2674 10.3659 15.6561 10.5268 16.0692 10.5268C16.4825 10.5268 16.8711 10.3659 17.1633 10.0736C17.4555 9.78144 17.6164 9.39292 17.6164 8.97959C17.6164 8.56627 17.4555 8.17774 17.1633 7.88554C16.8711 7.59333 16.4825 7.43235 16.0692 7.43235Z" fill="#1B3B6B"/>
<path d="M24.8255 0.223552C24.6799 0.0780213 24.4808 -0.00380393 24.2764 0.000201508C24.1632 0.00153665 21.4672 0.0469315 18.1381 1.03151L24.0173 6.91072C25.0019 3.58163 25.0473 0.885593 25.0486 0.772487C25.0513 0.566875 24.9708 0.368892 24.8255 0.223552Z" fill="#FF5B5B"/>
<path d="M23.8253 6.15521L21.3595 3.68939L4.72223 20.3266C4.86528 20.4697 5.05926 20.55 5.26144 20.55H5.27097C5.34078 20.5492 7.00704 20.5233 9.33191 20.04C10.6629 19.7632 11.944 19.3913 13.1403 18.9343C15.017 18.2171 16.6828 17.2917 18.0914 16.1837C18.5765 15.8024 19.0388 15.3929 19.4651 14.9664C21.5092 12.9223 23.0408 10.2121 24.0172 6.91071C24.0967 6.64273 24.0229 6.35281 23.8253 6.15521Z" fill="#CDEBFC"/>
<path d="M9.85295 18.8908L8.0055 17.0433L2.05151 22.9971V22.9973C2.19476 23.1404 2.38873 23.2207 2.59091 23.2207H2.60045C2.76887 23.2186 6.75237 23.1388 9.32328 20.5679C9.53004 20.3612 9.72879 20.1367 9.91361 19.9007C10.1518 19.5971 10.1259 19.1635 9.85295 18.8908Z" fill="#FDBF00"/>
<path d="M9.73322 15.3156L6.92694 18.1219L9.94742 21.1424C10.0903 21.2852 10.2843 21.3657 10.4866 21.3657C10.689 21.3657 10.8828 21.2852 11.0258 21.1424L13.2927 18.8753L9.73322 15.3156Z" fill="#001035"/>
<path d="M17.7147 7.33435C17.7145 7.33435 17.7145 7.33435 17.7145 7.33435L14.4241 10.6247H14.4243C14.8636 11.0642 15.448 11.3062 16.0694 11.3062C16.6908 11.3062 17.2752 11.0642 17.7147 10.6247C18.1541 10.1853 18.3962 9.60104 18.3962 8.97963C18.396 8.35822 18.1541 7.7738 17.7147 7.33435Z" fill="#1CADB5"/>
<path d="M18.2419 6.80695L17.1633 7.88555C17.4555 8.17776 17.6164 8.56629 17.6164 8.97961C17.6164 9.39293 17.4555 9.78146 17.1633 10.0737C16.8711 10.3659 16.4825 10.5268 16.0692 10.5268C15.6559 10.5268 15.2674 10.3659 14.9752 10.0737C14.9752 10.0737 14.9752 10.0737 14.9752 10.0735L13.8965 11.1521V11.1523C14.477 11.7325 15.2485 12.0522 16.0692 12.0522C16.8899 12.0522 17.6615 11.7325 18.2419 11.1523C18.8221 10.5719 19.1418 9.80034 19.1418 8.97961C19.1418 8.15888 18.8221 7.38735 18.2419 6.80695Z" fill="#001035"/>
<path d="M24.8253 0.223328L21.0778 3.97108L24.0174 6.91069C25.0019 3.5816 25.0473 0.885559 25.0487 0.772453C25.0513 0.566841 24.9708 0.368858 24.8253 0.223328Z" fill="#FF193D"/>
</g>
<defs>
<clipPath id="clip0_0_98">
<rect width="25" height="25" fill="white"/>
</clipPath>
</defs>
</svg>
