<svg width="25" height="32" viewBox="0 0 25 32" fill="none" xmlns="http://www.w3.org/2000/svg">
<path d="M14.7138 28.9152C14.7138 30.1379 13.7229 31.1288 12.5 31.1288C11.2771 31.1288 10.2863 30.1379 10.2863 28.9152C10.2863 27.697 11.2771 26.7062 12.5 26.7062C13.7229 26.7062 14.7138 27.697 14.7138 28.9152Z" fill="#474747"/>
<path d="M12.4999 1.47031C12.319 1.47031 12.1723 1.32374 12.1723 1.14266V0.327646C12.1723 0.146504 12.319 0 12.4999 0C12.6809 0 12.8276 0.146566 12.8276 0.327646V1.14266C12.8276 1.32374 12.6809 1.47031 12.4999 1.47031Z" fill="#474747"/>
<path d="M9.1181 23.5974H15.8818C16.28 21.727 17.2711 20.0166 18.6845 18.6697C20.3952 17.0396 21.4603 14.7388 21.4603 12.187C21.4603 7.24127 17.4495 3.22665 12.4999 3.22665C7.55037 3.22665 3.53955 7.24127 3.53955 12.187C3.53955 14.7388 4.60468 17.0396 6.31549 18.6697C7.72894 20.0166 8.71996 21.7269 9.1181 23.5974Z" fill="#FDCF17"/>
<path opacity="0.12" d="M14.8152 20.027C13.8683 21.6274 12.4726 22.8704 10.8366 23.5974H15.8816C16.2796 21.727 17.27 20.0174 18.6829 18.6711C20.3937 17.041 21.4617 14.74 21.4617 12.1861C21.4617 7.88266 18.423 4.28541 14.3725 3.42474C17.2321 4.88612 19.2204 7.84766 19.2907 11.2165C19.3504 13.8442 18.2754 16.226 16.5189 17.8982C15.8514 18.534 15.2789 19.2507 14.8152 20.027Z" fill="black"/>
<path d="M3.6612 21.3388C3.53318 21.2108 3.53318 21.0034 3.6612 20.8754L4.23767 20.2991C4.3657 20.1711 4.57303 20.1711 4.70105 20.2991C4.82908 20.4271 4.82908 20.6345 4.70105 20.7625L4.12458 21.3388C3.99656 21.4668 3.78916 21.4668 3.6612 21.3388Z" fill="#474747"/>
<path d="M24.6724 12.8276H23.8572C23.6762 12.8276 23.5295 12.681 23.5295 12.4999C23.5295 12.3188 23.6762 12.1723 23.8572 12.1723H24.6724C24.8533 12.1723 25 12.3189 25 12.4999C25.0001 12.681 24.8533 12.8276 24.6724 12.8276Z" fill="#474747"/>
<path d="M1.14285 12.8279H0.327646C0.146688 12.8279 0 12.6813 0 12.5003C0 12.3192 0.146688 12.1726 0.327646 12.1726H1.14285C1.3238 12.1726 1.47049 12.3192 1.47049 12.5003C1.47049 12.6813 1.3238 12.8279 1.14285 12.8279Z" fill="#474747"/>
<path d="M20.8755 21.3388L20.299 20.7625C20.171 20.6345 20.171 20.4271 20.299 20.2991C20.427 20.1711 20.6343 20.1711 20.7624 20.2991L21.3388 20.8754C21.4669 21.0034 21.4669 21.2108 21.3388 21.3388C21.2108 21.4668 21.0034 21.4668 20.8755 21.3388Z" fill="#474747"/>
<path d="M4.23728 4.70099L3.66081 4.12471C3.53278 3.99668 3.53278 3.78935 3.66081 3.66132C3.78883 3.5333 3.99616 3.5333 4.12419 3.66132L4.70066 4.23761C4.82868 4.36564 4.82868 4.57297 4.70066 4.70099C4.57263 4.82902 4.3653 4.82902 4.23728 4.70099Z" fill="#474747"/>
<path d="M17.5127 24.8682V27.6463C17.5127 28.3482 16.9438 28.9171 16.2419 28.9171H8.76003C8.05817 28.9171 7.48923 28.3482 7.48923 27.6463V24.8682C7.48923 24.1663 8.05817 23.5974 8.76003 23.5974H16.2419C16.9437 23.5974 17.5127 24.1663 17.5127 24.8682Z" fill="#474747"/>
<path opacity="0.12" d="M17.5102 24.8662V27.6477C17.5102 28.3503 16.9459 28.9147 16.2433 28.9147H8.76248C8.05988 28.9147 7.48978 28.3503 7.48978 27.6477V27.4519C8.30179 27.7629 9.1829 27.9298 10.1101 27.9298C13.0529 27.9298 15.5983 26.2137 16.7904 23.7259C17.2165 23.9274 17.5102 24.3593 17.5102 24.8662Z" fill="black"/>
<path d="M19.4092 12.3034C19.4092 16.0049 16.4078 19.0063 12.7044 19.0063C9.00086 19.0063 5.99948 16.0049 5.99948 12.3034C5.99948 8.59989 9.00086 5.59851 12.7044 5.59851C16.4078 5.59851 19.4092 8.59983 19.4092 12.3034Z" fill="#F14F4A"/>
<path opacity="0.12" d="M19.4092 12.3028C19.4092 16.0042 16.4071 19.0063 12.704 19.0063C10.4045 19.0063 8.3744 17.8474 7.16595 16.0836C8.24216 16.8192 9.54485 17.2506 10.9484 17.2506C14.6515 17.2506 17.6536 14.2485 17.6536 10.5471C17.6536 9.14521 17.2237 7.84418 16.4881 6.76797C18.2519 7.97483 19.4092 10.0033 19.4092 12.3028Z" fill="black"/>
<path d="M12.7043 17.3828C9.90231 17.3828 7.6228 15.1042 7.6228 12.3034C7.6228 9.50156 9.90231 7.22205 12.7043 7.22205C15.5062 7.22205 17.7857 9.50156 17.7857 12.3034C17.7856 15.1042 15.5061 17.3828 12.7043 17.3828Z" fill="#E8F1F8"/>
<path opacity="0.12" d="M17.7857 12.3027C17.7857 15.1048 15.506 17.3829 12.7039 17.3829C10.902 17.3829 9.31662 16.4406 8.41397 15.0221C9.20084 15.523 10.1349 15.8124 11.1351 15.8124C13.9371 15.8124 16.2152 13.5343 16.2152 10.7339C16.2152 9.73378 15.9243 8.80139 15.425 8.01447C16.8434 8.9154 17.7857 10.5025 17.7857 12.3027Z" fill="black"/>
<path d="M12.7042 15.7594C10.7975 15.7594 9.24628 14.209 9.24628 12.3034C9.24628 10.3967 10.7975 8.84546 12.7042 8.84546C14.611 8.84546 16.1622 10.3967 16.1622 12.3034C16.1622 14.209 14.6109 15.7594 12.7042 15.7594Z" fill="#F14F4A"/>
<path opacity="0.12" d="M16.1624 12.3028C16.1624 14.2089 14.6117 15.7595 12.704 15.7595C11.3815 15.7595 10.2292 15.0123 9.64728 13.9179C10.13 14.1742 10.6822 14.3196 11.2657 14.3196C13.1718 14.3196 14.7225 12.7706 14.7225 10.8645C14.7225 10.2793 14.577 9.72878 14.3208 9.24606C15.4151 9.82798 16.1624 10.9802 16.1624 12.3028Z" fill="black"/>
<path d="M12.7043 14.1359C11.6927 14.1359 10.8698 13.3139 10.8698 12.3034C10.8698 11.2919 11.6927 10.469 12.7043 10.469C13.7159 10.469 14.5388 11.2919 14.5388 12.3034C14.5388 13.3139 13.7159 14.1359 12.7043 14.1359Z" fill="#E8F1F8"/>
<path opacity="0.12" d="M14.5389 12.3028C14.5389 13.3145 13.7157 14.1362 12.704 14.1362C11.9997 14.1362 11.3864 13.7377 11.0789 13.1525C11.3352 13.288 11.6262 13.3642 11.9336 13.3642C12.9453 13.3642 13.7669 12.5425 13.7669 11.5324C13.7669 11.2249 13.6909 10.9356 13.557 10.6794C14.1405 10.9869 14.5389 11.6002 14.5389 12.3028Z" fill="black"/>
<path d="M21.9569 3.15442L23.5096 3.52166L21.6525 5.37873L20.0998 5.01149L19.7325 3.45875L21.5896 1.60162L21.9569 3.15442Z" fill="#F78721"/>
<path d="M12.5772 12.5341C12.4492 12.4061 12.4492 12.1988 12.5772 12.0708L22.318 2.32981C22.446 2.20179 22.6534 2.20179 22.7814 2.32981C22.9094 2.45784 22.9094 2.66517 22.7814 2.79319L13.0406 12.5341C12.9126 12.6621 12.7052 12.6622 12.5772 12.5341Z" fill="#474747"/>
</svg>
