<svg width="20" height="29" viewBox="0 0 20 29" fill="none" xmlns="http://www.w3.org/2000/svg">
<path d="M17.8392 8.36477L11.3573 15.9325H17.8392L0.853728 28.5003L8.10959 19.0723H2.71345L9.19537 11.5046H2.3406L17.8392 0.423644L12.0703 8.36477H17.8392Z" fill="#FFE360"/>
<path d="M15.9846 2.97653L5.84312 10.2273H12.6979L6.21597 17.795H11.6121L6.70576 24.1707L0.853728 28.5003L8.10959 19.0723H2.71345L9.19537 11.5046H2.3406L17.8392 0.423644L15.9846 2.97653Z" fill="#FFC55E"/>
<path d="M1.46263 9.01416L3.77356 5.69174H1.29886L8.10313 0.826964L5.57035 4.31321H8.10313L1.46263 9.01416Z" fill="#FFC55E"/>
<path d="M12.5178 26.3323L14.8288 23.0098H12.3541L19.1583 18.1451L16.6256 21.6313H19.1583L12.5178 26.3323Z" fill="#FFC55E"/>
<path d="M1.93685 11.6339C1.99306 11.8093 2.15616 11.9282 2.34032 11.9282H8.27455L5.62586 15.0206C5.47367 15.1984 5.49434 15.4659 5.67201 15.618C5.75189 15.6865 5.84985 15.72 5.94741 15.72C6.06689 15.72 6.18564 15.6697 6.26942 15.5719L9.51704 11.7801C9.62466 11.6545 9.64929 11.4777 9.58015 11.3274C9.51094 11.1771 9.36067 11.0808 9.19527 11.0808H3.66139L9.9678 6.57205C10.1581 6.43596 10.2021 6.17129 10.066 5.98097C9.92995 5.79065 9.66539 5.7467 9.4749 5.88273L2.09384 11.1598C1.94403 11.267 1.88059 11.4586 1.93685 11.6339Z" fill="black"/>
<path d="M18.2414 15.7998C18.1841 15.6261 18.0218 15.5088 17.839 15.5088H12.2778L18.1608 8.64024C18.2684 8.51461 18.293 8.33778 18.2239 8.18752C18.1547 8.03725 18.0044 7.94093 17.839 7.94093H12.9014L18.1817 0.672688C18.3039 0.504567 18.2861 0.272666 18.1397 0.125222C17.9933 -0.0222231 17.7616 -0.0418259 17.5925 0.079011L11.0671 4.74437C10.8768 4.88046 10.8329 5.14512 10.969 5.33545C11.105 5.52583 11.3697 5.56983 11.56 5.43369L15.962 2.28645L11.7273 8.11554C11.6336 8.24446 11.6201 8.41495 11.6925 8.55692C11.7648 8.69888 11.9107 8.78825 12.07 8.78825H16.9183L11.0352 15.6569C10.9276 15.7825 10.903 15.9593 10.9721 16.1096C11.0413 16.2599 11.1916 16.3562 11.357 16.3562H16.5539L3.03739 26.3573L8.44516 19.3308C8.54363 19.2029 8.56086 19.0301 8.48951 18.8853C8.41822 18.7405 8.27083 18.6487 8.10937 18.6487H3.63411L5.00902 17.0435C5.16121 16.8657 5.14054 16.5983 4.96287 16.4461C4.78515 16.2939 4.51771 16.3145 4.36546 16.4922L2.39162 18.7968C2.28401 18.9224 2.25938 19.0992 2.32852 19.2495C2.39773 19.3998 2.548 19.4961 2.7134 19.4961H7.24866L0.517664 28.2419C0.388749 28.4093 0.402985 28.6462 0.550995 28.797C0.63336 28.881 0.743068 28.924 0.853511 28.924C0.941582 28.924 1.03005 28.8966 1.10541 28.8409L18.0909 16.2731C18.238 16.1643 18.2986 15.9734 18.2414 15.7998Z" fill="black"/>
<path d="M1.29894 6.11536H2.96281L1.11483 8.77219C0.997327 8.94116 1.01823 9.17007 1.16432 9.31497C1.24618 9.39621 1.35413 9.43784 1.46277 9.43784C1.54801 9.43784 1.6336 9.41219 1.70743 9.35999L8.34793 4.65905C8.49854 4.55244 8.56288 4.3606 8.5069 4.18474C8.45097 4.00893 8.28765 3.88951 8.10315 3.88951H6.40194L8.44594 1.07597C8.56808 0.907844 8.55028 0.675944 8.40391 0.528499C8.25749 0.380997 8.02581 0.361451 7.85673 0.482288L1.05246 5.34695C0.902703 5.45406 0.839262 5.64568 0.895472 5.82104C0.951682 5.99639 1.11477 6.11536 1.29894 6.11536ZM6.22608 2.68972L5.22764 4.06413C5.13397 4.19304 5.12053 4.36353 5.19289 4.5055C5.2652 4.64746 5.41107 4.73683 5.57043 4.73683H6.77134L3.1907 7.27164L4.12146 5.93357C4.21157 5.80409 4.22219 5.63523 4.14914 5.49541C4.07604 5.3556 3.93142 5.26798 3.77364 5.26798H2.62007L6.22608 2.68972Z" fill="black"/>
<path d="M19.1583 21.2077H17.457L19.5011 18.3941C19.6232 18.226 19.6054 17.9941 19.4591 17.8466C19.3126 17.6991 19.081 17.6796 18.9119 17.8004L12.1077 22.6652C11.9579 22.7723 11.8945 22.9639 11.9507 23.1392C12.0069 23.3146 12.17 23.4335 12.3542 23.4335H14.018L12.1701 26.0903C12.0525 26.2593 12.0734 26.4882 12.2195 26.6331C12.3014 26.7144 12.4094 26.756 12.518 26.756C12.6032 26.756 12.6888 26.7303 12.7627 26.6781L16.1492 24.2807C16.3402 24.1455 16.3854 23.8811 16.2502 23.6901C16.115 23.4992 15.8506 23.4539 15.6596 23.5891L14.2459 24.5899L15.1767 23.2518C15.2668 23.1223 15.2774 22.9534 15.2044 22.8136C15.1313 22.6738 14.9866 22.5862 14.8289 22.5862H13.6753L17.2813 20.008L16.2828 21.3823C16.1891 21.5112 16.1757 21.6817 16.2481 21.8237C16.3204 21.9657 16.4662 22.055 16.6256 22.055H17.8266L17.2583 22.4573C17.0673 22.5926 17.0221 22.8569 17.1573 23.048C17.2925 23.2389 17.5569 23.2841 17.7479 23.149L19.4031 21.9772C19.5538 21.8706 19.6181 21.6787 19.5621 21.5029C19.5061 21.3271 19.3429 21.2077 19.1583 21.2077Z" fill="black"/>
<path d="M18.7011 5.39055C18.7018 5.39055 18.7025 5.39055 18.7032 5.39055C18.9362 5.39055 19.1257 5.2022 19.1268 4.96895L19.1276 4.82195C19.1288 4.58796 18.94 4.39736 18.7059 4.39617C18.7052 4.39617 18.7046 4.39617 18.7038 4.39617C18.4708 4.39617 18.2813 4.58452 18.2802 4.81777L18.2795 4.96477C18.2783 5.19876 18.4671 5.38936 18.7011 5.39055Z" fill="black"/>
<path d="M18.6989 5.99932C18.466 5.99932 18.2765 6.18755 18.2753 6.42075L18.2745 6.56775C18.2733 6.80174 18.4619 6.99245 18.696 6.9937C18.6968 6.9937 18.6974 6.9937 18.6982 6.9937C18.9311 6.9937 19.1207 6.80546 19.1219 6.57226L19.1227 6.42527C19.1238 6.19128 18.9352 6.00056 18.7012 5.99932C18.7004 5.99932 18.6997 5.99932 18.6989 5.99932Z" fill="black"/>
<path d="M19.5785 5.27416L19.4315 5.27337C19.4307 5.27337 19.43 5.27337 19.4293 5.27337C19.1963 5.27337 19.0068 5.4616 19.0056 5.6948C19.0044 5.92879 19.1931 6.11951 19.4271 6.12075L19.5741 6.12154C19.5749 6.12154 19.5756 6.12154 19.5764 6.12154C19.8093 6.12154 19.9988 5.93331 20 5.70011C20.0012 5.46606 19.8125 5.2754 19.5785 5.27416Z" fill="black"/>
<path d="M17.8281 5.26842C17.8273 5.26842 17.8266 5.26842 17.8258 5.26842C17.5929 5.26842 17.4034 5.45666 17.4022 5.68986C17.401 5.92385 17.5896 6.11457 17.8237 6.11581L17.9707 6.1166C17.9715 6.1166 17.9722 6.1166 17.973 6.1166C18.2059 6.1166 18.3954 5.92837 18.3966 5.69517C18.3978 5.46118 18.2092 5.27046 17.9751 5.26922L17.8281 5.26842Z" fill="black"/>
<path d="M1.301 21.6741C1.53391 21.6741 1.72344 21.4859 1.72463 21.2527L1.72542 21.1057C1.72661 20.8717 1.53798 20.681 1.30393 20.6797C1.30314 20.6797 1.30246 20.6797 1.30167 20.6797C1.06876 20.6797 0.879224 20.8679 0.878038 21.1011L0.877247 21.2481C0.876061 21.4821 1.06469 21.6729 1.29874 21.6741C1.29947 21.6741 1.3002 21.6741 1.301 21.6741Z" fill="black"/>
<path d="M0.872288 22.8518C0.871102 23.0858 1.0599 23.2764 1.29395 23.2775C1.29462 23.2775 1.2953 23.2775 1.29604 23.2775C1.52907 23.2775 1.71854 23.0892 1.71967 22.8559L1.72041 22.709C1.72159 22.475 1.5328 22.2844 1.29875 22.2832C1.29807 22.2832 1.29739 22.2832 1.29666 22.2832C1.06363 22.2832 0.874152 22.4715 0.873023 22.7048L0.872288 22.8518Z" fill="black"/>
<path d="M2.02491 22.4044L2.17196 22.4052C2.17275 22.4052 2.17337 22.4052 2.17416 22.4052C2.40714 22.4052 2.59661 22.2169 2.5978 21.9836C2.59899 21.7496 2.41024 21.559 2.17625 21.5578L2.0292 21.557C2.02841 21.557 2.02779 21.557 2.027 21.557C1.79403 21.557 1.60455 21.7453 1.60337 21.9786C1.60224 22.2126 1.79098 22.4032 2.02491 22.4044Z" fill="black"/>
<path d="M0.570747 22.4002C0.803721 22.4002 0.993197 22.2119 0.994383 21.9787C0.995569 21.7447 0.806829 21.554 0.572837 21.5528L0.425845 21.5521C0.191345 21.5514 0.0011919 21.7396 5.56207e-06 21.9736C-0.00118078 22.2076 0.18756 22.3983 0.421551 22.3995L0.568544 22.4002C0.569335 22.4002 0.569956 22.4002 0.570747 22.4002Z" fill="black"/>
</svg>
